<svg xmlns="http://www.w3.org/2000/svg" xmlns:xlink="http://www.w3.org/1999/xlink" width="500" zoomAndPan="magnify" viewBox="0 0 375 374.999991" height="500" preserveAspectRatio="xMidYMid meet" version="1.0"><defs><g/></defs><rect x="-37.5" width="450" fill="#ffffff" y="-37.499999" height="449.999989" fill-opacity="1"/><rect x="-37.5" width="450" fill="#ffffff" y="-37.499999" height="449.999989" fill-opacity="1"/><rect x="-37.5" width="450" fill="#000000" y="-37.499999" height="449.999989" fill-opacity="1"/><g fill="#ffffff" fill-opacity="1"><g transform="translate(11.897293, 276.930149)"><g><path d="M 175.886719 -124.015625 C 181.550781 -124.015625 186.023438 -128.488281 186.023438 -134.152344 C 186.023438 -139.816406 181.550781 -144.289062 175.886719 -144.289062 C 170.222656 -144.289062 165.75 -139.816406 165.75 -134.152344 C 165.75 -128.488281 170.222656 -124.015625 175.886719 -124.015625 Z M -1.191406 -8.945312 C -1.191406 -3.277344 3.277344 1.191406 8.945312 1.191406 C 14.609375 1.191406 19.078125 -3.277344 19.078125 -8.945312 C 19.078125 -14.609375 14.609375 -19.078125 8.945312 -19.078125 C 3.277344 -19.078125 -1.191406 -14.609375 -1.191406 -8.945312 Z M -1.191406 -29.8125 C -1.191406 -24.148438 3.277344 -19.675781 8.945312 -19.675781 C 14.609375 -19.675781 19.078125 -24.148438 19.078125 -29.8125 C 19.078125 -35.476562 14.609375 -39.949219 8.945312 -39.949219 C 3.277344 -39.949219 -1.191406 -35.476562 -1.191406 -29.8125 Z M -1.191406 -50.679688 C -1.191406 -45.015625 3.277344 -40.542969 8.945312 -40.542969 C 14.609375 -40.542969 19.078125 -45.015625 19.078125 -50.679688 C 19.078125 -56.34375 14.609375 -60.816406 8.945312 -60.816406 C 3.277344 -60.816406 -1.191406 -56.34375 -1.191406 -50.679688 Z M -1.191406 -71.546875 C -1.191406 -65.882812 3.277344 -61.410156 8.945312 -61.410156 C 14.609375 -61.410156 19.078125 -65.882812 19.078125 -71.546875 C 19.078125 -77.210938 14.609375 -81.683594 8.945312 -81.683594 C 3.277344 -81.683594 -1.191406 -77.210938 -1.191406 -71.546875 Z M -1.191406 -92.414062 C -1.191406 -86.75 3.277344 -82.28125 8.945312 -82.28125 C 14.609375 -82.28125 19.078125 -86.75 19.078125 -92.414062 C 19.078125 -98.078125 14.609375 -102.550781 8.945312 -102.550781 C 3.277344 -102.550781 -1.191406 -98.078125 -1.191406 -92.414062 Z M -1.191406 -113.285156 C -1.191406 -107.621094 3.277344 -103.148438 8.945312 -103.148438 C 14.609375 -103.148438 19.078125 -107.621094 19.078125 -113.285156 C 19.078125 -118.949219 14.609375 -123.417969 8.945312 -123.417969 C 3.277344 -123.417969 -1.191406 -118.949219 -1.191406 -113.285156 Z M 19.675781 -8.945312 C 19.675781 -3.277344 24.148438 1.191406 29.8125 1.191406 C 35.476562 1.191406 39.949219 -3.277344 39.949219 -8.945312 C 39.949219 -14.609375 35.476562 -19.078125 29.8125 -19.078125 C 24.148438 -19.078125 19.675781 -14.609375 19.675781 -8.945312 Z M 19.675781 -29.8125 C 19.675781 -24.148438 24.148438 -19.675781 29.8125 -19.675781 C 35.476562 -19.675781 39.949219 -24.148438 39.949219 -29.8125 C 39.949219 -35.476562 35.476562 -39.949219 29.8125 -39.949219 C 24.148438 -39.949219 19.675781 -35.476562 19.675781 -29.8125 Z M 19.675781 -50.679688 C 19.675781 -45.015625 24.148438 -40.542969 29.8125 -40.542969 C 35.476562 -40.542969 39.949219 -45.015625 39.949219 -50.679688 C 39.949219 -56.34375 35.476562 -60.816406 29.8125 -60.816406 C 24.148438 -60.816406 19.675781 -56.34375 19.675781 -50.679688 Z M 19.675781 -71.546875 C 19.675781 -65.882812 24.148438 -61.410156 29.8125 -61.410156 C 35.476562 -61.410156 39.949219 -65.882812 39.949219 -71.546875 C 39.949219 -77.210938 35.476562 -81.683594 29.8125 -81.683594 C 24.148438 -81.683594 19.675781 -77.210938 19.675781 -71.546875 Z M 19.675781 -92.414062 C 19.675781 -86.75 24.148438 -82.28125 29.8125 -82.28125 C 35.476562 -82.28125 39.949219 -86.75 39.949219 -92.414062 C 39.949219 -98.078125 35.476562 -102.550781 29.8125 -102.550781 C 24.148438 -102.550781 19.675781 -98.078125 19.675781 -92.414062 Z M 19.675781 -113.285156 C 19.675781 -107.621094 24.148438 -103.148438 29.8125 -103.148438 C 35.476562 -103.148438 39.949219 -107.621094 39.949219 -113.285156 C 39.949219 -118.949219 35.476562 -123.417969 29.8125 -123.417969 C 24.148438 -123.417969 19.675781 -118.949219 19.675781 -113.285156 Z M 19.675781 -134.152344 C 19.675781 -128.488281 24.148438 -124.015625 29.8125 -124.015625 C 35.476562 -124.015625 39.949219 -128.488281 39.949219 -134.152344 C 39.949219 -139.816406 35.476562 -144.289062 29.8125 -144.289062 C 24.148438 -144.289062 19.675781 -139.816406 19.675781 -134.152344 Z M 40.542969 -134.152344 C 40.542969 -128.488281 45.015625 -124.015625 50.679688 -124.015625 C 56.34375 -124.015625 60.816406 -128.488281 60.816406 -134.152344 C 60.816406 -139.816406 56.34375 -144.289062 50.679688 -144.289062 C 45.015625 -144.289062 40.542969 -139.816406 40.542969 -134.152344 Z M 61.410156 -134.152344 C 61.410156 -128.488281 65.882812 -124.015625 71.546875 -124.015625 C 77.210938 -124.015625 81.683594 -128.488281 81.683594 -134.152344 C 81.683594 -139.816406 77.210938 -144.289062 71.546875 -144.289062 C 65.882812 -144.289062 61.410156 -139.816406 61.410156 -134.152344 Z M 82.28125 -8.945312 C 82.28125 -3.277344 86.75 1.191406 92.414062 1.191406 C 98.078125 1.191406 102.550781 -3.277344 102.550781 -8.945312 C 102.550781 -14.609375 98.078125 -19.078125 92.414062 -19.078125 C 86.75 -19.078125 82.28125 -14.609375 82.28125 -8.945312 Z M 82.28125 -29.8125 C 82.28125 -24.148438 86.75 -19.675781 92.414062 -19.675781 C 98.078125 -19.675781 102.550781 -24.148438 102.550781 -29.8125 C 102.550781 -35.476562 98.078125 -39.949219 92.414062 -39.949219 C 86.75 -39.949219 82.28125 -35.476562 82.28125 -29.8125 Z M 82.28125 -50.679688 C 82.28125 -45.015625 86.75 -40.542969 92.414062 -40.542969 C 98.078125 -40.542969 102.550781 -45.015625 102.550781 -50.679688 C 102.550781 -56.34375 98.078125 -60.816406 92.414062 -60.816406 C 86.75 -60.816406 82.28125 -56.34375 82.28125 -50.679688 Z M 82.28125 -71.546875 C 82.28125 -65.882812 86.75 -61.410156 92.414062 -61.410156 C 98.078125 -61.410156 102.550781 -65.882812 102.550781 -71.546875 C 102.550781 -77.210938 98.078125 -81.683594 92.414062 -81.683594 C 86.75 -81.683594 82.28125 -77.210938 82.28125 -71.546875 Z M 82.28125 -92.414062 C 82.28125 -86.75 86.75 -82.28125 92.414062 -82.28125 C 98.078125 -82.28125 102.550781 -86.75 102.550781 -92.414062 C 102.550781 -98.078125 98.078125 -102.550781 92.414062 -102.550781 C 86.75 -102.550781 82.28125 -98.078125 82.28125 -92.414062 Z M 82.28125 -113.285156 C 82.28125 -107.621094 86.75 -103.148438 92.414062 -103.148438 C 98.078125 -103.148438 102.550781 -107.621094 102.550781 -113.285156 C 102.550781 -118.949219 98.078125 -123.417969 92.414062 -123.417969 C 86.75 -123.417969 82.28125 -118.949219 82.28125 -113.285156 Z M 103.148438 -8.945312 C 103.148438 -3.277344 107.621094 1.191406 113.285156 1.191406 C 118.949219 1.191406 123.417969 -3.277344 123.417969 -8.945312 C 123.417969 -14.609375 118.949219 -19.078125 113.285156 -19.078125 C 107.621094 -19.078125 103.148438 -14.609375 103.148438 -8.945312 Z M 103.148438 -29.8125 C 103.148438 -24.148438 107.621094 -19.675781 113.285156 -19.675781 C 118.949219 -19.675781 123.417969 -24.148438 123.417969 -29.8125 C 123.417969 -35.476562 118.949219 -39.949219 113.285156 -39.949219 C 107.621094 -39.949219 103.148438 -35.476562 103.148438 -29.8125 Z M 103.148438 -50.679688 C 103.148438 -45.015625 107.621094 -40.542969 113.285156 -40.542969 C 118.949219 -40.542969 123.417969 -45.015625 123.417969 -50.679688 C 123.417969 -56.34375 118.949219 -60.816406 113.285156 -60.816406 C 107.621094 -60.816406 103.148438 -56.34375 103.148438 -50.679688 Z M 103.148438 -71.546875 C 103.148438 -65.882812 107.621094 -61.410156 113.285156 -61.410156 C 118.949219 -61.410156 123.417969 -65.882812 123.417969 -71.546875 C 123.417969 -77.210938 118.949219 -81.683594 113.285156 -81.683594 C 107.621094 -81.683594 103.148438 -77.210938 103.148438 -71.546875 Z M 103.148438 -92.414062 C 103.148438 -86.75 107.621094 -82.28125 113.285156 -82.28125 C 118.949219 -82.28125 123.417969 -86.75 123.417969 -92.414062 C 123.417969 -98.078125 118.949219 -102.550781 113.285156 -102.550781 C 107.621094 -102.550781 103.148438 -98.078125 103.148438 -92.414062 Z M 103.148438 -113.285156 C 103.148438 -107.621094 107.621094 -103.148438 113.285156 -103.148438 C 118.949219 -103.148438 123.417969 -107.621094 123.417969 -113.285156 C 123.417969 -118.949219 118.949219 -123.417969 113.285156 -123.417969 C 107.621094 -123.417969 103.148438 -118.949219 103.148438 -113.285156 Z M 103.148438 -134.152344 C 103.148438 -128.488281 107.621094 -124.015625 113.285156 -124.015625 C 118.949219 -124.015625 123.417969 -128.488281 123.417969 -134.152344 C 123.417969 -139.816406 118.949219 -144.289062 113.285156 -144.289062 C 107.621094 -144.289062 103.148438 -139.816406 103.148438 -134.152344 Z M 124.015625 -134.152344 C 124.015625 -128.488281 128.488281 -124.015625 134.152344 -124.015625 C 139.816406 -124.015625 144.289062 -128.488281 144.289062 -134.152344 C 144.289062 -139.816406 139.816406 -144.289062 134.152344 -144.289062 C 128.488281 -144.289062 124.015625 -139.816406 124.015625 -134.152344 Z M 144.882812 -134.152344 C 144.882812 -128.488281 149.355469 -124.015625 155.019531 -124.015625 C 160.683594 -124.015625 165.15625 -128.488281 165.15625 -134.152344 C 165.15625 -139.816406 160.683594 -144.289062 155.019531 -144.289062 C 149.355469 -144.289062 144.882812 -139.816406 144.882812 -134.152344 Z M 165.75 -8.945312 C 165.75 -3.277344 170.222656 1.191406 175.886719 1.191406 C 181.550781 1.191406 186.023438 -3.277344 186.023438 -8.945312 C 186.023438 -14.609375 181.550781 -19.078125 175.886719 -19.078125 C 170.222656 -19.078125 165.75 -14.609375 165.75 -8.945312 Z M 165.75 -29.8125 C 165.75 -24.148438 170.222656 -19.675781 175.886719 -19.675781 C 181.550781 -19.675781 186.023438 -24.148438 186.023438 -29.8125 C 186.023438 -35.476562 181.550781 -39.949219 175.886719 -39.949219 C 170.222656 -39.949219 165.75 -35.476562 165.75 -29.8125 Z M 165.75 -50.679688 C 165.75 -45.015625 170.222656 -40.542969 175.886719 -40.542969 C 181.550781 -40.542969 186.023438 -45.015625 186.023438 -50.679688 C 186.023438 -56.34375 181.550781 -60.816406 175.886719 -60.816406 C 170.222656 -60.816406 165.75 -56.34375 165.75 -50.679688 Z M 165.75 -71.546875 C 165.75 -65.882812 170.222656 -61.410156 175.886719 -61.410156 C 181.550781 -61.410156 186.023438 -65.882812 186.023438 -71.546875 C 186.023438 -77.210938 181.550781 -81.683594 175.886719 -81.683594 C 170.222656 -81.683594 165.75 -77.210938 165.75 -71.546875 Z M 165.75 -92.414062 C 165.75 -86.75 170.222656 -82.28125 175.886719 -82.28125 C 181.550781 -82.28125 186.023438 -86.75 186.023438 -92.414062 C 186.023438 -98.078125 181.550781 -102.550781 175.886719 -102.550781 C 170.222656 -102.550781 165.75 -98.078125 165.75 -92.414062 Z M 165.75 -113.285156 C 165.75 -107.621094 170.222656 -103.148438 175.886719 -103.148438 C 181.550781 -103.148438 186.023438 -107.621094 186.023438 -113.285156 C 186.023438 -118.949219 181.550781 -123.417969 175.886719 -123.417969 C 170.222656 -123.417969 165.75 -118.949219 165.75 -113.285156 Z M 186.621094 -8.945312 C 186.621094 -3.277344 191.089844 1.191406 196.753906 1.191406 C 202.417969 1.191406 206.890625 -3.277344 206.890625 -8.945312 C 206.890625 -14.609375 202.417969 -19.078125 196.753906 -19.078125 C 191.089844 -19.078125 186.621094 -14.609375 186.621094 -8.945312 Z M 186.621094 -29.8125 C 186.621094 -24.148438 191.089844 -19.675781 196.753906 -19.675781 C 202.417969 -19.675781 206.890625 -24.148438 206.890625 -29.8125 C 206.890625 -35.476562 202.417969 -39.949219 196.753906 -39.949219 C 191.089844 -39.949219 186.621094 -35.476562 186.621094 -29.8125 Z M 186.621094 -50.679688 C 186.621094 -45.015625 191.089844 -40.542969 196.753906 -40.542969 C 202.417969 -40.542969 206.890625 -45.015625 206.890625 -50.679688 C 206.890625 -56.34375 202.417969 -60.816406 196.753906 -60.816406 C 191.089844 -60.816406 186.621094 -56.34375 186.621094 -50.679688 Z M 186.621094 -71.546875 C 186.621094 -65.882812 191.089844 -61.410156 196.753906 -61.410156 C 202.417969 -61.410156 206.890625 -65.882812 206.890625 -71.546875 C 206.890625 -77.210938 202.417969 -81.683594 196.753906 -81.683594 C 191.089844 -81.683594 186.621094 -77.210938 186.621094 -71.546875 Z M 186.621094 -92.414062 C 186.621094 -86.75 191.089844 -82.28125 196.753906 -82.28125 C 202.417969 -82.28125 206.890625 -86.75 206.890625 -92.414062 C 206.890625 -98.078125 202.417969 -102.550781 196.753906 -102.550781 C 191.089844 -102.550781 186.621094 -98.078125 186.621094 -92.414062 Z M 186.621094 -113.285156 C 186.621094 -107.621094 191.089844 -103.148438 196.753906 -103.148438 C 202.417969 -103.148438 206.890625 -107.621094 206.890625 -113.285156 C 206.890625 -118.949219 202.417969 -123.417969 196.753906 -123.417969 C 191.089844 -123.417969 186.621094 -118.949219 186.621094 -113.285156 Z M 186.621094 -113.285156 "/></g></g></g><g fill="#ffffff" fill-opacity="1"><g transform="translate(238.463786, 276.930149)"><g><path d="M 92.414062 -124.015625 C 98.078125 -124.015625 102.550781 -128.488281 102.550781 -134.152344 C 102.550781 -139.816406 98.078125 -144.289062 92.414062 -144.289062 C 86.75 -144.289062 82.28125 -139.816406 82.28125 -134.152344 C 82.28125 -128.488281 86.75 -124.015625 92.414062 -124.015625 Z M -1.191406 -8.945312 C -1.191406 -3.277344 3.277344 1.191406 8.945312 1.191406 C 14.609375 1.191406 19.078125 -3.277344 19.078125 -8.945312 C 19.078125 -14.609375 14.609375 -19.078125 8.945312 -19.078125 C 3.277344 -19.078125 -1.191406 -14.609375 -1.191406 -8.945312 Z M -1.191406 -29.8125 C -1.191406 -24.148438 3.277344 -19.675781 8.945312 -19.675781 C 14.609375 -19.675781 19.078125 -24.148438 19.078125 -29.8125 C 19.078125 -35.476562 14.609375 -39.949219 8.945312 -39.949219 C 3.277344 -39.949219 -1.191406 -35.476562 -1.191406 -29.8125 Z M -1.191406 -50.679688 C -1.191406 -45.015625 3.277344 -40.542969 8.945312 -40.542969 C 14.609375 -40.542969 19.078125 -45.015625 19.078125 -50.679688 C 19.078125 -56.34375 14.609375 -60.816406 8.945312 -60.816406 C 3.277344 -60.816406 -1.191406 -56.34375 -1.191406 -50.679688 Z M -1.191406 -71.546875 C -1.191406 -65.882812 3.277344 -61.410156 8.945312 -61.410156 C 14.609375 -61.410156 19.078125 -65.882812 19.078125 -71.546875 C 19.078125 -77.210938 14.609375 -81.683594 8.945312 -81.683594 C 3.277344 -81.683594 -1.191406 -77.210938 -1.191406 -71.546875 Z M -1.191406 -92.414062 C -1.191406 -86.75 3.277344 -82.28125 8.945312 -82.28125 C 14.609375 -82.28125 19.078125 -86.75 19.078125 -92.414062 C 19.078125 -98.078125 14.609375 -102.550781 8.945312 -102.550781 C 3.277344 -102.550781 -1.191406 -98.078125 -1.191406 -92.414062 Z M -1.191406 -113.285156 C -1.191406 -107.621094 3.277344 -103.148438 8.945312 -103.148438 C 14.609375 -103.148438 19.078125 -107.621094 19.078125 -113.285156 C 19.078125 -118.949219 14.609375 -123.417969 8.945312 -123.417969 C 3.277344 -123.417969 -1.191406 -118.949219 -1.191406 -113.285156 Z M -1.191406 -134.152344 C -1.191406 -128.488281 3.277344 -124.015625 8.945312 -124.015625 C 14.609375 -124.015625 19.078125 -128.488281 19.078125 -134.152344 C 19.078125 -139.816406 14.609375 -144.289062 8.945312 -144.289062 C 3.277344 -144.289062 -1.191406 -139.816406 -1.191406 -134.152344 Z M 19.675781 -8.945312 C 19.675781 -3.277344 24.148438 1.191406 29.8125 1.191406 C 35.476562 1.191406 39.949219 -3.277344 39.949219 -8.945312 C 39.949219 -14.609375 35.476562 -19.078125 29.8125 -19.078125 C 24.148438 -19.078125 19.675781 -14.609375 19.675781 -8.945312 Z M 19.675781 -29.8125 C 19.675781 -24.148438 24.148438 -19.675781 29.8125 -19.675781 C 35.476562 -19.675781 39.949219 -24.148438 39.949219 -29.8125 C 39.949219 -35.476562 35.476562 -39.949219 29.8125 -39.949219 C 24.148438 -39.949219 19.675781 -35.476562 19.675781 -29.8125 Z M 19.675781 -50.679688 C 19.675781 -45.015625 24.148438 -40.542969 29.8125 -40.542969 C 35.476562 -40.542969 39.949219 -45.015625 39.949219 -50.679688 C 39.949219 -56.34375 35.476562 -60.816406 29.8125 -60.816406 C 24.148438 -60.816406 19.675781 -56.34375 19.675781 -50.679688 Z M 19.675781 -71.546875 C 19.675781 -65.882812 24.148438 -61.410156 29.8125 -61.410156 C 35.476562 -61.410156 39.949219 -65.882812 39.949219 -71.546875 C 39.949219 -77.210938 35.476562 -81.683594 29.8125 -81.683594 C 24.148438 -81.683594 19.675781 -77.210938 19.675781 -71.546875 Z M 19.675781 -92.414062 C 19.675781 -86.75 24.148438 -82.28125 29.8125 -82.28125 C 35.476562 -82.28125 39.949219 -86.75 39.949219 -92.414062 C 39.949219 -98.078125 35.476562 -102.550781 29.8125 -102.550781 C 24.148438 -102.550781 19.675781 -98.078125 19.675781 -92.414062 Z M 19.675781 -113.285156 C 19.675781 -107.621094 24.148438 -103.148438 29.8125 -103.148438 C 35.476562 -103.148438 39.949219 -107.621094 39.949219 -113.285156 C 39.949219 -118.949219 35.476562 -123.417969 29.8125 -123.417969 C 24.148438 -123.417969 19.675781 -118.949219 19.675781 -113.285156 Z M 19.675781 -134.152344 C 19.675781 -128.488281 24.148438 -124.015625 29.8125 -124.015625 C 35.476562 -124.015625 39.949219 -128.488281 39.949219 -134.152344 C 39.949219 -139.816406 35.476562 -144.289062 29.8125 -144.289062 C 24.148438 -144.289062 19.675781 -139.816406 19.675781 -134.152344 Z M 40.542969 -71.546875 C 40.542969 -65.882812 45.015625 -61.410156 50.679688 -61.410156 C 56.34375 -61.410156 60.816406 -65.882812 60.816406 -71.546875 C 60.816406 -77.210938 56.34375 -81.683594 50.679688 -81.683594 C 45.015625 -81.683594 40.542969 -77.210938 40.542969 -71.546875 Z M 40.542969 -134.152344 C 40.542969 -128.488281 45.015625 -124.015625 50.679688 -124.015625 C 56.34375 -124.015625 60.816406 -128.488281 60.816406 -134.152344 C 60.816406 -139.816406 56.34375 -144.289062 50.679688 -144.289062 C 45.015625 -144.289062 40.542969 -139.816406 40.542969 -134.152344 Z M 61.410156 -71.546875 C 61.410156 -65.882812 65.882812 -61.410156 71.546875 -61.410156 C 77.210938 -61.410156 81.683594 -65.882812 81.683594 -71.546875 C 81.683594 -77.210938 77.210938 -81.683594 71.546875 -81.683594 C 65.882812 -81.683594 61.410156 -77.210938 61.410156 -71.546875 Z M 61.410156 -134.152344 C 61.410156 -128.488281 65.882812 -124.015625 71.546875 -124.015625 C 77.210938 -124.015625 81.683594 -128.488281 81.683594 -134.152344 C 81.683594 -139.816406 77.210938 -144.289062 71.546875 -144.289062 C 65.882812 -144.289062 61.410156 -139.816406 61.410156 -134.152344 Z M 82.28125 -71.546875 C 82.28125 -65.882812 86.75 -61.410156 92.414062 -61.410156 C 98.078125 -61.410156 102.550781 -65.882812 102.550781 -71.546875 C 102.550781 -77.210938 98.078125 -81.683594 92.414062 -81.683594 C 86.75 -81.683594 82.28125 -77.210938 82.28125 -71.546875 Z M 82.28125 -92.414062 C 82.28125 -86.75 86.75 -82.28125 92.414062 -82.28125 C 98.078125 -82.28125 102.550781 -86.75 102.550781 -92.414062 C 102.550781 -98.078125 98.078125 -102.550781 92.414062 -102.550781 C 86.75 -102.550781 82.28125 -98.078125 82.28125 -92.414062 Z M 82.28125 -113.285156 C 82.28125 -107.621094 86.75 -103.148438 92.414062 -103.148438 C 98.078125 -103.148438 102.550781 -107.621094 102.550781 -113.285156 C 102.550781 -118.949219 98.078125 -123.417969 92.414062 -123.417969 C 86.75 -123.417969 82.28125 -118.949219 82.28125 -113.285156 Z M 103.148438 -92.414062 C 103.148438 -86.75 107.621094 -82.28125 113.285156 -82.28125 C 118.949219 -82.28125 123.417969 -86.75 123.417969 -92.414062 C 123.417969 -98.078125 118.949219 -102.550781 113.285156 -102.550781 C 107.621094 -102.550781 103.148438 -98.078125 103.148438 -92.414062 Z M 103.148438 -113.285156 C 103.148438 -107.621094 107.621094 -103.148438 113.285156 -103.148438 C 118.949219 -103.148438 123.417969 -107.621094 123.417969 -113.285156 C 123.417969 -118.949219 118.949219 -123.417969 113.285156 -123.417969 C 107.621094 -123.417969 103.148438 -118.949219 103.148438 -113.285156 Z M 103.148438 -113.285156 "/></g></g></g></svg>