<svg xmlns="http://www.w3.org/2000/svg" xmlns:xlink="http://www.w3.org/1999/xlink" width="1500" zoomAndPan="magnify" viewBox="0 0 1125 374.999991" height="500" preserveAspectRatio="xMidYMid meet" version="1.0"><defs><g/></defs><rect x="-112.5" width="1350" fill="#ffffff" y="-37.499999" height="449.999989" fill-opacity="1"/><rect x="-112.5" width="1350" fill="#ffffff" y="-37.499999" height="449.999989" fill-opacity="1"/><rect x="-112.5" width="1350" fill="#000000" y="-37.499999" height="449.999989" fill-opacity="1"/><g fill="#ffffff" fill-opacity="1"><g transform="translate(23.654816, 237.012284)"><g><path d="M 149.339844 -105.296875 C 154.148438 -105.296875 157.945312 -109.09375 157.945312 -113.902344 C 157.945312 -118.710938 154.148438 -122.507812 149.339844 -122.507812 C 144.53125 -122.507812 140.734375 -118.710938 140.734375 -113.902344 C 140.734375 -109.09375 144.53125 -105.296875 149.339844 -105.296875 Z M -1.011719 -7.59375 C -1.011719 -2.785156 2.785156 1.011719 7.59375 1.011719 C 12.402344 1.011719 16.199219 -2.785156 16.199219 -7.59375 C 16.199219 -12.402344 12.402344 -16.199219 7.59375 -16.199219 C 2.785156 -16.199219 -1.011719 -12.402344 -1.011719 -7.59375 Z M -1.011719 -25.3125 C -1.011719 -20.503906 2.785156 -16.707031 7.59375 -16.707031 C 12.402344 -16.707031 16.199219 -20.503906 16.199219 -25.3125 C 16.199219 -30.121094 12.402344 -33.917969 7.59375 -33.917969 C 2.785156 -33.917969 -1.011719 -30.121094 -1.011719 -25.3125 Z M -1.011719 -43.03125 C -1.011719 -38.222656 2.785156 -34.425781 7.59375 -34.425781 C 12.402344 -34.425781 16.199219 -38.222656 16.199219 -43.03125 C 16.199219 -47.839844 12.402344 -51.636719 7.59375 -51.636719 C 2.785156 -51.636719 -1.011719 -47.839844 -1.011719 -43.03125 Z M -1.011719 -60.75 C -1.011719 -55.9375 2.785156 -52.140625 7.59375 -52.140625 C 12.402344 -52.140625 16.199219 -55.9375 16.199219 -60.75 C 16.199219 -65.558594 12.402344 -69.355469 7.59375 -69.355469 C 2.785156 -69.355469 -1.011719 -65.558594 -1.011719 -60.75 Z M -1.011719 -78.464844 C -1.011719 -73.65625 2.785156 -69.859375 7.59375 -69.859375 C 12.402344 -69.859375 16.199219 -73.65625 16.199219 -78.464844 C 16.199219 -83.277344 12.402344 -87.074219 7.59375 -87.074219 C 2.785156 -87.074219 -1.011719 -83.277344 -1.011719 -78.464844 Z M -1.011719 -96.183594 C -1.011719 -91.375 2.785156 -87.578125 7.59375 -87.578125 C 12.402344 -87.578125 16.199219 -91.375 16.199219 -96.183594 C 16.199219 -100.992188 12.402344 -104.789062 7.59375 -104.789062 C 2.785156 -104.789062 -1.011719 -100.992188 -1.011719 -96.183594 Z M 16.707031 -7.59375 C 16.707031 -2.785156 20.503906 1.011719 25.3125 1.011719 C 30.121094 1.011719 33.917969 -2.785156 33.917969 -7.59375 C 33.917969 -12.402344 30.121094 -16.199219 25.3125 -16.199219 C 20.503906 -16.199219 16.707031 -12.402344 16.707031 -7.59375 Z M 16.707031 -25.3125 C 16.707031 -20.503906 20.503906 -16.707031 25.3125 -16.707031 C 30.121094 -16.707031 33.917969 -20.503906 33.917969 -25.3125 C 33.917969 -30.121094 30.121094 -33.917969 25.3125 -33.917969 C 20.503906 -33.917969 16.707031 -30.121094 16.707031 -25.3125 Z M 16.707031 -43.03125 C 16.707031 -38.222656 20.503906 -34.425781 25.3125 -34.425781 C 30.121094 -34.425781 33.917969 -38.222656 33.917969 -43.03125 C 33.917969 -47.839844 30.121094 -51.636719 25.3125 -51.636719 C 20.503906 -51.636719 16.707031 -47.839844 16.707031 -43.03125 Z M 16.707031 -60.75 C 16.707031 -55.9375 20.503906 -52.140625 25.3125 -52.140625 C 30.121094 -52.140625 33.917969 -55.9375 33.917969 -60.75 C 33.917969 -65.558594 30.121094 -69.355469 25.3125 -69.355469 C 20.503906 -69.355469 16.707031 -65.558594 16.707031 -60.75 Z M 16.707031 -78.464844 C 16.707031 -73.65625 20.503906 -69.859375 25.3125 -69.859375 C 30.121094 -69.859375 33.917969 -73.65625 33.917969 -78.464844 C 33.917969 -83.277344 30.121094 -87.074219 25.3125 -87.074219 C 20.503906 -87.074219 16.707031 -83.277344 16.707031 -78.464844 Z M 16.707031 -96.183594 C 16.707031 -91.375 20.503906 -87.578125 25.3125 -87.578125 C 30.121094 -87.578125 33.917969 -91.375 33.917969 -96.183594 C 33.917969 -100.992188 30.121094 -104.789062 25.3125 -104.789062 C 20.503906 -104.789062 16.707031 -100.992188 16.707031 -96.183594 Z M 16.707031 -113.902344 C 16.707031 -109.09375 20.503906 -105.296875 25.3125 -105.296875 C 30.121094 -105.296875 33.917969 -109.09375 33.917969 -113.902344 C 33.917969 -118.710938 30.121094 -122.507812 25.3125 -122.507812 C 20.503906 -122.507812 16.707031 -118.710938 16.707031 -113.902344 Z M 34.425781 -113.902344 C 34.425781 -109.09375 38.222656 -105.296875 43.03125 -105.296875 C 47.839844 -105.296875 51.636719 -109.09375 51.636719 -113.902344 C 51.636719 -118.710938 47.839844 -122.507812 43.03125 -122.507812 C 38.222656 -122.507812 34.425781 -118.710938 34.425781 -113.902344 Z M 52.140625 -113.902344 C 52.140625 -109.09375 55.9375 -105.296875 60.75 -105.296875 C 65.558594 -105.296875 69.355469 -109.09375 69.355469 -113.902344 C 69.355469 -118.710938 65.558594 -122.507812 60.75 -122.507812 C 55.9375 -122.507812 52.140625 -118.710938 52.140625 -113.902344 Z M 69.859375 -7.59375 C 69.859375 -2.785156 73.65625 1.011719 78.464844 1.011719 C 83.277344 1.011719 87.074219 -2.785156 87.074219 -7.59375 C 87.074219 -12.402344 83.277344 -16.199219 78.464844 -16.199219 C 73.65625 -16.199219 69.859375 -12.402344 69.859375 -7.59375 Z M 69.859375 -25.3125 C 69.859375 -20.503906 73.65625 -16.707031 78.464844 -16.707031 C 83.277344 -16.707031 87.074219 -20.503906 87.074219 -25.3125 C 87.074219 -30.121094 83.277344 -33.917969 78.464844 -33.917969 C 73.65625 -33.917969 69.859375 -30.121094 69.859375 -25.3125 Z M 69.859375 -43.03125 C 69.859375 -38.222656 73.65625 -34.425781 78.464844 -34.425781 C 83.277344 -34.425781 87.074219 -38.222656 87.074219 -43.03125 C 87.074219 -47.839844 83.277344 -51.636719 78.464844 -51.636719 C 73.65625 -51.636719 69.859375 -47.839844 69.859375 -43.03125 Z M 69.859375 -60.75 C 69.859375 -55.9375 73.65625 -52.140625 78.464844 -52.140625 C 83.277344 -52.140625 87.074219 -55.9375 87.074219 -60.75 C 87.074219 -65.558594 83.277344 -69.355469 78.464844 -69.355469 C 73.65625 -69.355469 69.859375 -65.558594 69.859375 -60.75 Z M 69.859375 -78.464844 C 69.859375 -73.65625 73.65625 -69.859375 78.464844 -69.859375 C 83.277344 -69.859375 87.074219 -73.65625 87.074219 -78.464844 C 87.074219 -83.277344 83.277344 -87.074219 78.464844 -87.074219 C 73.65625 -87.074219 69.859375 -83.277344 69.859375 -78.464844 Z M 69.859375 -96.183594 C 69.859375 -91.375 73.65625 -87.578125 78.464844 -87.578125 C 83.277344 -87.578125 87.074219 -91.375 87.074219 -96.183594 C 87.074219 -100.992188 83.277344 -104.789062 78.464844 -104.789062 C 73.65625 -104.789062 69.859375 -100.992188 69.859375 -96.183594 Z M 87.578125 -7.59375 C 87.578125 -2.785156 91.375 1.011719 96.183594 1.011719 C 100.992188 1.011719 104.789062 -2.785156 104.789062 -7.59375 C 104.789062 -12.402344 100.992188 -16.199219 96.183594 -16.199219 C 91.375 -16.199219 87.578125 -12.402344 87.578125 -7.59375 Z M 87.578125 -25.3125 C 87.578125 -20.503906 91.375 -16.707031 96.183594 -16.707031 C 100.992188 -16.707031 104.789062 -20.503906 104.789062 -25.3125 C 104.789062 -30.121094 100.992188 -33.917969 96.183594 -33.917969 C 91.375 -33.917969 87.578125 -30.121094 87.578125 -25.3125 Z M 87.578125 -43.03125 C 87.578125 -38.222656 91.375 -34.425781 96.183594 -34.425781 C 100.992188 -34.425781 104.789062 -38.222656 104.789062 -43.03125 C 104.789062 -47.839844 100.992188 -51.636719 96.183594 -51.636719 C 91.375 -51.636719 87.578125 -47.839844 87.578125 -43.03125 Z M 87.578125 -60.75 C 87.578125 -55.9375 91.375 -52.140625 96.183594 -52.140625 C 100.992188 -52.140625 104.789062 -55.9375 104.789062 -60.75 C 104.789062 -65.558594 100.992188 -69.355469 96.183594 -69.355469 C 91.375 -69.355469 87.578125 -65.558594 87.578125 -60.75 Z M 87.578125 -78.464844 C 87.578125 -73.65625 91.375 -69.859375 96.183594 -69.859375 C 100.992188 -69.859375 104.789062 -73.65625 104.789062 -78.464844 C 104.789062 -83.277344 100.992188 -87.074219 96.183594 -87.074219 C 91.375 -87.074219 87.578125 -83.277344 87.578125 -78.464844 Z M 87.578125 -96.183594 C 87.578125 -91.375 91.375 -87.578125 96.183594 -87.578125 C 100.992188 -87.578125 104.789062 -91.375 104.789062 -96.183594 C 104.789062 -100.992188 100.992188 -104.789062 96.183594 -104.789062 C 91.375 -104.789062 87.578125 -100.992188 87.578125 -96.183594 Z M 87.578125 -113.902344 C 87.578125 -109.09375 91.375 -105.296875 96.183594 -105.296875 C 100.992188 -105.296875 104.789062 -109.09375 104.789062 -113.902344 C 104.789062 -118.710938 100.992188 -122.507812 96.183594 -122.507812 C 91.375 -122.507812 87.578125 -118.710938 87.578125 -113.902344 Z M 105.296875 -113.902344 C 105.296875 -109.09375 109.09375 -105.296875 113.902344 -105.296875 C 118.710938 -105.296875 122.507812 -109.09375 122.507812 -113.902344 C 122.507812 -118.710938 118.710938 -122.507812 113.902344 -122.507812 C 109.09375 -122.507812 105.296875 -118.710938 105.296875 -113.902344 Z M 123.015625 -113.902344 C 123.015625 -109.09375 126.8125 -105.296875 131.621094 -105.296875 C 136.429688 -105.296875 140.226562 -109.09375 140.226562 -113.902344 C 140.226562 -118.710938 136.429688 -122.507812 131.621094 -122.507812 C 126.8125 -122.507812 123.015625 -118.710938 123.015625 -113.902344 Z M 140.734375 -7.59375 C 140.734375 -2.785156 144.53125 1.011719 149.339844 1.011719 C 154.148438 1.011719 157.945312 -2.785156 157.945312 -7.59375 C 157.945312 -12.402344 154.148438 -16.199219 149.339844 -16.199219 C 144.53125 -16.199219 140.734375 -12.402344 140.734375 -7.59375 Z M 140.734375 -25.3125 C 140.734375 -20.503906 144.53125 -16.707031 149.339844 -16.707031 C 154.148438 -16.707031 157.945312 -20.503906 157.945312 -25.3125 C 157.945312 -30.121094 154.148438 -33.917969 149.339844 -33.917969 C 144.53125 -33.917969 140.734375 -30.121094 140.734375 -25.3125 Z M 140.734375 -43.03125 C 140.734375 -38.222656 144.53125 -34.425781 149.339844 -34.425781 C 154.148438 -34.425781 157.945312 -38.222656 157.945312 -43.03125 C 157.945312 -47.839844 154.148438 -51.636719 149.339844 -51.636719 C 144.53125 -51.636719 140.734375 -47.839844 140.734375 -43.03125 Z M 140.734375 -60.75 C 140.734375 -55.9375 144.53125 -52.140625 149.339844 -52.140625 C 154.148438 -52.140625 157.945312 -55.9375 157.945312 -60.75 C 157.945312 -65.558594 154.148438 -69.355469 149.339844 -69.355469 C 144.53125 -69.355469 140.734375 -65.558594 140.734375 -60.75 Z M 140.734375 -78.464844 C 140.734375 -73.65625 144.53125 -69.859375 149.339844 -69.859375 C 154.148438 -69.859375 157.945312 -73.65625 157.945312 -78.464844 C 157.945312 -83.277344 154.148438 -87.074219 149.339844 -87.074219 C 144.53125 -87.074219 140.734375 -83.277344 140.734375 -78.464844 Z M 140.734375 -96.183594 C 140.734375 -91.375 144.53125 -87.578125 149.339844 -87.578125 C 154.148438 -87.578125 157.945312 -91.375 157.945312 -96.183594 C 157.945312 -100.992188 154.148438 -104.789062 149.339844 -104.789062 C 144.53125 -104.789062 140.734375 -100.992188 140.734375 -96.183594 Z M 158.453125 -7.59375 C 158.453125 -2.785156 162.25 1.011719 167.058594 1.011719 C 171.867188 1.011719 175.664062 -2.785156 175.664062 -7.59375 C 175.664062 -12.402344 171.867188 -16.199219 167.058594 -16.199219 C 162.25 -16.199219 158.453125 -12.402344 158.453125 -7.59375 Z M 158.453125 -25.3125 C 158.453125 -20.503906 162.25 -16.707031 167.058594 -16.707031 C 171.867188 -16.707031 175.664062 -20.503906 175.664062 -25.3125 C 175.664062 -30.121094 171.867188 -33.917969 167.058594 -33.917969 C 162.25 -33.917969 158.453125 -30.121094 158.453125 -25.3125 Z M 158.453125 -43.03125 C 158.453125 -38.222656 162.25 -34.425781 167.058594 -34.425781 C 171.867188 -34.425781 175.664062 -38.222656 175.664062 -43.03125 C 175.664062 -47.839844 171.867188 -51.636719 167.058594 -51.636719 C 162.25 -51.636719 158.453125 -47.839844 158.453125 -43.03125 Z M 158.453125 -60.75 C 158.453125 -55.9375 162.25 -52.140625 167.058594 -52.140625 C 171.867188 -52.140625 175.664062 -55.9375 175.664062 -60.75 C 175.664062 -65.558594 171.867188 -69.355469 167.058594 -69.355469 C 162.25 -69.355469 158.453125 -65.558594 158.453125 -60.75 Z M 158.453125 -78.464844 C 158.453125 -73.65625 162.25 -69.859375 167.058594 -69.859375 C 171.867188 -69.859375 175.664062 -73.65625 175.664062 -78.464844 C 175.664062 -83.277344 171.867188 -87.074219 167.058594 -87.074219 C 162.25 -87.074219 158.453125 -83.277344 158.453125 -78.464844 Z M 158.453125 -96.183594 C 158.453125 -91.375 162.25 -87.578125 167.058594 -87.578125 C 171.867188 -87.578125 175.664062 -91.375 175.664062 -96.183594 C 175.664062 -100.992188 171.867188 -104.789062 167.058594 -104.789062 C 162.25 -104.789062 158.453125 -100.992188 158.453125 -96.183594 Z M 158.453125 -96.183594 "/></g></g></g><g fill="#fffc01" fill-opacity="1"><g transform="translate(216.018088, 237.012284)"><g><path d="M 43.03125 -105.296875 C 47.839844 -105.296875 51.636719 -109.09375 51.636719 -113.902344 C 51.636719 -118.710938 47.839844 -122.507812 43.03125 -122.507812 C 38.222656 -122.507812 34.425781 -118.710938 34.425781 -113.902344 C 34.425781 -109.09375 38.222656 -105.296875 43.03125 -105.296875 Z M -1.011719 -7.59375 C -1.011719 -2.785156 2.785156 1.011719 7.59375 1.011719 C 12.402344 1.011719 16.199219 -2.785156 16.199219 -7.59375 C 16.199219 -12.402344 12.402344 -16.199219 7.59375 -16.199219 C 2.785156 -16.199219 -1.011719 -12.402344 -1.011719 -7.59375 Z M -1.011719 -78.464844 C -1.011719 -73.65625 2.785156 -69.859375 7.59375 -69.859375 C 12.402344 -69.859375 16.199219 -73.65625 16.199219 -78.464844 C 16.199219 -83.277344 12.402344 -87.074219 7.59375 -87.074219 C 2.785156 -87.074219 -1.011719 -83.277344 -1.011719 -78.464844 Z M 16.707031 -7.59375 C 16.707031 -2.785156 20.503906 1.011719 25.3125 1.011719 C 30.121094 1.011719 33.917969 -2.785156 33.917969 -7.59375 C 33.917969 -12.402344 30.121094 -16.199219 25.3125 -16.199219 C 20.503906 -16.199219 16.707031 -12.402344 16.707031 -7.59375 Z M 16.707031 -25.3125 C 16.707031 -20.503906 20.503906 -16.707031 25.3125 -16.707031 C 30.121094 -16.707031 33.917969 -20.503906 33.917969 -25.3125 C 33.917969 -30.121094 30.121094 -33.917969 25.3125 -33.917969 C 20.503906 -33.917969 16.707031 -30.121094 16.707031 -25.3125 Z M 16.707031 -43.03125 C 16.707031 -38.222656 20.503906 -34.425781 25.3125 -34.425781 C 30.121094 -34.425781 33.917969 -38.222656 33.917969 -43.03125 C 33.917969 -47.839844 30.121094 -51.636719 25.3125 -51.636719 C 20.503906 -51.636719 16.707031 -47.839844 16.707031 -43.03125 Z M 16.707031 -60.75 C 16.707031 -55.9375 20.503906 -52.140625 25.3125 -52.140625 C 30.121094 -52.140625 33.917969 -55.9375 33.917969 -60.75 C 33.917969 -65.558594 30.121094 -69.355469 25.3125 -69.355469 C 20.503906 -69.355469 16.707031 -65.558594 16.707031 -60.75 Z M 16.707031 -78.464844 C 16.707031 -73.65625 20.503906 -69.859375 25.3125 -69.859375 C 30.121094 -69.859375 33.917969 -73.65625 33.917969 -78.464844 C 33.917969 -83.277344 30.121094 -87.074219 25.3125 -87.074219 C 20.503906 -87.074219 16.707031 -83.277344 16.707031 -78.464844 Z M 16.707031 -113.902344 C 16.707031 -109.09375 20.503906 -105.296875 25.3125 -105.296875 C 30.121094 -105.296875 33.917969 -109.09375 33.917969 -113.902344 C 33.917969 -118.710938 30.121094 -122.507812 25.3125 -122.507812 C 20.503906 -122.507812 16.707031 -118.710938 16.707031 -113.902344 Z M 34.425781 -7.59375 C 34.425781 -2.785156 38.222656 1.011719 43.03125 1.011719 C 47.839844 1.011719 51.636719 -2.785156 51.636719 -7.59375 C 51.636719 -12.402344 47.839844 -16.199219 43.03125 -16.199219 C 38.222656 -16.199219 34.425781 -12.402344 34.425781 -7.59375 Z M 34.425781 -25.3125 C 34.425781 -20.503906 38.222656 -16.707031 43.03125 -16.707031 C 47.839844 -16.707031 51.636719 -20.503906 51.636719 -25.3125 C 51.636719 -30.121094 47.839844 -33.917969 43.03125 -33.917969 C 38.222656 -33.917969 34.425781 -30.121094 34.425781 -25.3125 Z M 34.425781 -43.03125 C 34.425781 -38.222656 38.222656 -34.425781 43.03125 -34.425781 C 47.839844 -34.425781 51.636719 -38.222656 51.636719 -43.03125 C 51.636719 -47.839844 47.839844 -51.636719 43.03125 -51.636719 C 38.222656 -51.636719 34.425781 -47.839844 34.425781 -43.03125 Z M 34.425781 -60.75 C 34.425781 -55.9375 38.222656 -52.140625 43.03125 -52.140625 C 47.839844 -52.140625 51.636719 -55.9375 51.636719 -60.75 C 51.636719 -65.558594 47.839844 -69.355469 43.03125 -69.355469 C 38.222656 -69.355469 34.425781 -65.558594 34.425781 -60.75 Z M 34.425781 -78.464844 C 34.425781 -73.65625 38.222656 -69.859375 43.03125 -69.859375 C 47.839844 -69.859375 51.636719 -73.65625 51.636719 -78.464844 C 51.636719 -83.277344 47.839844 -87.074219 43.03125 -87.074219 C 38.222656 -87.074219 34.425781 -83.277344 34.425781 -78.464844 Z M 52.140625 -7.59375 C 52.140625 -2.785156 55.9375 1.011719 60.75 1.011719 C 65.558594 1.011719 69.355469 -2.785156 69.355469 -7.59375 C 69.355469 -12.402344 65.558594 -16.199219 60.75 -16.199219 C 55.9375 -16.199219 52.140625 -12.402344 52.140625 -7.59375 Z M 52.140625 -78.464844 C 52.140625 -73.65625 55.9375 -69.859375 60.75 -69.859375 C 65.558594 -69.859375 69.355469 -73.65625 69.355469 -78.464844 C 69.355469 -83.277344 65.558594 -87.074219 60.75 -87.074219 C 55.9375 -87.074219 52.140625 -83.277344 52.140625 -78.464844 Z M 52.140625 -78.464844 "/></g></g></g><g fill="#ffffff" fill-opacity="1"><g transform="translate(302.06886, 237.012284)"><g><path d="M 78.464844 -105.296875 C 83.277344 -105.296875 87.074219 -109.09375 87.074219 -113.902344 C 87.074219 -118.710938 83.277344 -122.507812 78.464844 -122.507812 C 73.65625 -122.507812 69.859375 -118.710938 69.859375 -113.902344 C 69.859375 -109.09375 73.65625 -105.296875 78.464844 -105.296875 Z M -1.011719 -7.59375 C -1.011719 -2.785156 2.785156 1.011719 7.59375 1.011719 C 12.402344 1.011719 16.199219 -2.785156 16.199219 -7.59375 C 16.199219 -12.402344 12.402344 -16.199219 7.59375 -16.199219 C 2.785156 -16.199219 -1.011719 -12.402344 -1.011719 -7.59375 Z M -1.011719 -25.3125 C -1.011719 -20.503906 2.785156 -16.707031 7.59375 -16.707031 C 12.402344 -16.707031 16.199219 -20.503906 16.199219 -25.3125 C 16.199219 -30.121094 12.402344 -33.917969 7.59375 -33.917969 C 2.785156 -33.917969 -1.011719 -30.121094 -1.011719 -25.3125 Z M -1.011719 -43.03125 C -1.011719 -38.222656 2.785156 -34.425781 7.59375 -34.425781 C 12.402344 -34.425781 16.199219 -38.222656 16.199219 -43.03125 C 16.199219 -47.839844 12.402344 -51.636719 7.59375 -51.636719 C 2.785156 -51.636719 -1.011719 -47.839844 -1.011719 -43.03125 Z M -1.011719 -60.75 C -1.011719 -55.9375 2.785156 -52.140625 7.59375 -52.140625 C 12.402344 -52.140625 16.199219 -55.9375 16.199219 -60.75 C 16.199219 -65.558594 12.402344 -69.355469 7.59375 -69.355469 C 2.785156 -69.355469 -1.011719 -65.558594 -1.011719 -60.75 Z M -1.011719 -78.464844 C -1.011719 -73.65625 2.785156 -69.859375 7.59375 -69.859375 C 12.402344 -69.859375 16.199219 -73.65625 16.199219 -78.464844 C 16.199219 -83.277344 12.402344 -87.074219 7.59375 -87.074219 C 2.785156 -87.074219 -1.011719 -83.277344 -1.011719 -78.464844 Z M -1.011719 -96.183594 C -1.011719 -91.375 2.785156 -87.578125 7.59375 -87.578125 C 12.402344 -87.578125 16.199219 -91.375 16.199219 -96.183594 C 16.199219 -100.992188 12.402344 -104.789062 7.59375 -104.789062 C 2.785156 -104.789062 -1.011719 -100.992188 -1.011719 -96.183594 Z M -1.011719 -113.902344 C -1.011719 -109.09375 2.785156 -105.296875 7.59375 -105.296875 C 12.402344 -105.296875 16.199219 -109.09375 16.199219 -113.902344 C 16.199219 -118.710938 12.402344 -122.507812 7.59375 -122.507812 C 2.785156 -122.507812 -1.011719 -118.710938 -1.011719 -113.902344 Z M 16.707031 -7.59375 C 16.707031 -2.785156 20.503906 1.011719 25.3125 1.011719 C 30.121094 1.011719 33.917969 -2.785156 33.917969 -7.59375 C 33.917969 -12.402344 30.121094 -16.199219 25.3125 -16.199219 C 20.503906 -16.199219 16.707031 -12.402344 16.707031 -7.59375 Z M 16.707031 -25.3125 C 16.707031 -20.503906 20.503906 -16.707031 25.3125 -16.707031 C 30.121094 -16.707031 33.917969 -20.503906 33.917969 -25.3125 C 33.917969 -30.121094 30.121094 -33.917969 25.3125 -33.917969 C 20.503906 -33.917969 16.707031 -30.121094 16.707031 -25.3125 Z M 16.707031 -43.03125 C 16.707031 -38.222656 20.503906 -34.425781 25.3125 -34.425781 C 30.121094 -34.425781 33.917969 -38.222656 33.917969 -43.03125 C 33.917969 -47.839844 30.121094 -51.636719 25.3125 -51.636719 C 20.503906 -51.636719 16.707031 -47.839844 16.707031 -43.03125 Z M 16.707031 -60.75 C 16.707031 -55.9375 20.503906 -52.140625 25.3125 -52.140625 C 30.121094 -52.140625 33.917969 -55.9375 33.917969 -60.75 C 33.917969 -65.558594 30.121094 -69.355469 25.3125 -69.355469 C 20.503906 -69.355469 16.707031 -65.558594 16.707031 -60.75 Z M 16.707031 -78.464844 C 16.707031 -73.65625 20.503906 -69.859375 25.3125 -69.859375 C 30.121094 -69.859375 33.917969 -73.65625 33.917969 -78.464844 C 33.917969 -83.277344 30.121094 -87.074219 25.3125 -87.074219 C 20.503906 -87.074219 16.707031 -83.277344 16.707031 -78.464844 Z M 16.707031 -96.183594 C 16.707031 -91.375 20.503906 -87.578125 25.3125 -87.578125 C 30.121094 -87.578125 33.917969 -91.375 33.917969 -96.183594 C 33.917969 -100.992188 30.121094 -104.789062 25.3125 -104.789062 C 20.503906 -104.789062 16.707031 -100.992188 16.707031 -96.183594 Z M 16.707031 -113.902344 C 16.707031 -109.09375 20.503906 -105.296875 25.3125 -105.296875 C 30.121094 -105.296875 33.917969 -109.09375 33.917969 -113.902344 C 33.917969 -118.710938 30.121094 -122.507812 25.3125 -122.507812 C 20.503906 -122.507812 16.707031 -118.710938 16.707031 -113.902344 Z M 34.425781 -7.59375 C 34.425781 -2.785156 38.222656 1.011719 43.03125 1.011719 C 47.839844 1.011719 51.636719 -2.785156 51.636719 -7.59375 C 51.636719 -12.402344 47.839844 -16.199219 43.03125 -16.199219 C 38.222656 -16.199219 34.425781 -12.402344 34.425781 -7.59375 Z M 34.425781 -113.902344 C 34.425781 -109.09375 38.222656 -105.296875 43.03125 -105.296875 C 47.839844 -105.296875 51.636719 -109.09375 51.636719 -113.902344 C 51.636719 -118.710938 47.839844 -122.507812 43.03125 -122.507812 C 38.222656 -122.507812 34.425781 -118.710938 34.425781 -113.902344 Z M 52.140625 -7.59375 C 52.140625 -2.785156 55.9375 1.011719 60.75 1.011719 C 65.558594 1.011719 69.355469 -2.785156 69.355469 -7.59375 C 69.355469 -12.402344 65.558594 -16.199219 60.75 -16.199219 C 55.9375 -16.199219 52.140625 -12.402344 52.140625 -7.59375 Z M 52.140625 -113.902344 C 52.140625 -109.09375 55.9375 -105.296875 60.75 -105.296875 C 65.558594 -105.296875 69.355469 -109.09375 69.355469 -113.902344 C 69.355469 -118.710938 65.558594 -122.507812 60.75 -122.507812 C 55.9375 -122.507812 52.140625 -118.710938 52.140625 -113.902344 Z M 69.859375 -7.59375 C 69.859375 -2.785156 73.65625 1.011719 78.464844 1.011719 C 83.277344 1.011719 87.074219 -2.785156 87.074219 -7.59375 C 87.074219 -12.402344 83.277344 -16.199219 78.464844 -16.199219 C 73.65625 -16.199219 69.859375 -12.402344 69.859375 -7.59375 Z M 69.859375 -25.3125 C 69.859375 -20.503906 73.65625 -16.707031 78.464844 -16.707031 C 83.277344 -16.707031 87.074219 -20.503906 87.074219 -25.3125 C 87.074219 -30.121094 83.277344 -33.917969 78.464844 -33.917969 C 73.65625 -33.917969 69.859375 -30.121094 69.859375 -25.3125 Z M 69.859375 -43.03125 C 69.859375 -38.222656 73.65625 -34.425781 78.464844 -34.425781 C 83.277344 -34.425781 87.074219 -38.222656 87.074219 -43.03125 C 87.074219 -47.839844 83.277344 -51.636719 78.464844 -51.636719 C 73.65625 -51.636719 69.859375 -47.839844 69.859375 -43.03125 Z M 69.859375 -60.75 C 69.859375 -55.9375 73.65625 -52.140625 78.464844 -52.140625 C 83.277344 -52.140625 87.074219 -55.9375 87.074219 -60.75 C 87.074219 -65.558594 83.277344 -69.355469 78.464844 -69.355469 C 73.65625 -69.355469 69.859375 -65.558594 69.859375 -60.75 Z M 69.859375 -78.464844 C 69.859375 -73.65625 73.65625 -69.859375 78.464844 -69.859375 C 83.277344 -69.859375 87.074219 -73.65625 87.074219 -78.464844 C 87.074219 -83.277344 83.277344 -87.074219 78.464844 -87.074219 C 73.65625 -87.074219 69.859375 -83.277344 69.859375 -78.464844 Z M 69.859375 -96.183594 C 69.859375 -91.375 73.65625 -87.578125 78.464844 -87.578125 C 83.277344 -87.578125 87.074219 -91.375 87.074219 -96.183594 C 87.074219 -100.992188 83.277344 -104.789062 78.464844 -104.789062 C 73.65625 -104.789062 69.859375 -100.992188 69.859375 -96.183594 Z M 87.578125 -25.3125 C 87.578125 -20.503906 91.375 -16.707031 96.183594 -16.707031 C 100.992188 -16.707031 104.789062 -20.503906 104.789062 -25.3125 C 104.789062 -30.121094 100.992188 -33.917969 96.183594 -33.917969 C 91.375 -33.917969 87.578125 -30.121094 87.578125 -25.3125 Z M 87.578125 -43.03125 C 87.578125 -38.222656 91.375 -34.425781 96.183594 -34.425781 C 100.992188 -34.425781 104.789062 -38.222656 104.789062 -43.03125 C 104.789062 -47.839844 100.992188 -51.636719 96.183594 -51.636719 C 91.375 -51.636719 87.578125 -47.839844 87.578125 -43.03125 Z M 87.578125 -60.75 C 87.578125 -55.9375 91.375 -52.140625 96.183594 -52.140625 C 100.992188 -52.140625 104.789062 -55.9375 104.789062 -60.75 C 104.789062 -65.558594 100.992188 -69.355469 96.183594 -69.355469 C 91.375 -69.355469 87.578125 -65.558594 87.578125 -60.75 Z M 87.578125 -78.464844 C 87.578125 -73.65625 91.375 -69.859375 96.183594 -69.859375 C 100.992188 -69.859375 104.789062 -73.65625 104.789062 -78.464844 C 104.789062 -83.277344 100.992188 -87.074219 96.183594 -87.074219 C 91.375 -87.074219 87.578125 -83.277344 87.578125 -78.464844 Z M 87.578125 -96.183594 C 87.578125 -91.375 91.375 -87.578125 96.183594 -87.578125 C 100.992188 -87.578125 104.789062 -91.375 104.789062 -96.183594 C 104.789062 -100.992188 100.992188 -104.789062 96.183594 -104.789062 C 91.375 -104.789062 87.578125 -100.992188 87.578125 -96.183594 Z M 87.578125 -96.183594 "/></g></g></g><g fill="#ff5757" fill-opacity="1"><g transform="translate(423.557137, 237.012284)"><g><path d="M 43.03125 -105.296875 C 47.839844 -105.296875 51.636719 -109.09375 51.636719 -113.902344 C 51.636719 -118.710938 47.839844 -122.507812 43.03125 -122.507812 C 38.222656 -122.507812 34.425781 -118.710938 34.425781 -113.902344 C 34.425781 -109.09375 38.222656 -105.296875 43.03125 -105.296875 Z M -1.011719 -7.59375 C -1.011719 -2.785156 2.785156 1.011719 7.59375 1.011719 C 12.402344 1.011719 16.199219 -2.785156 16.199219 -7.59375 C 16.199219 -12.402344 12.402344 -16.199219 7.59375 -16.199219 C 2.785156 -16.199219 -1.011719 -12.402344 -1.011719 -7.59375 Z M -1.011719 -78.464844 C -1.011719 -73.65625 2.785156 -69.859375 7.59375 -69.859375 C 12.402344 -69.859375 16.199219 -73.65625 16.199219 -78.464844 C 16.199219 -83.277344 12.402344 -87.074219 7.59375 -87.074219 C 2.785156 -87.074219 -1.011719 -83.277344 -1.011719 -78.464844 Z M 16.707031 -7.59375 C 16.707031 -2.785156 20.503906 1.011719 25.3125 1.011719 C 30.121094 1.011719 33.917969 -2.785156 33.917969 -7.59375 C 33.917969 -12.402344 30.121094 -16.199219 25.3125 -16.199219 C 20.503906 -16.199219 16.707031 -12.402344 16.707031 -7.59375 Z M 16.707031 -25.3125 C 16.707031 -20.503906 20.503906 -16.707031 25.3125 -16.707031 C 30.121094 -16.707031 33.917969 -20.503906 33.917969 -25.3125 C 33.917969 -30.121094 30.121094 -33.917969 25.3125 -33.917969 C 20.503906 -33.917969 16.707031 -30.121094 16.707031 -25.3125 Z M 16.707031 -43.03125 C 16.707031 -38.222656 20.503906 -34.425781 25.3125 -34.425781 C 30.121094 -34.425781 33.917969 -38.222656 33.917969 -43.03125 C 33.917969 -47.839844 30.121094 -51.636719 25.3125 -51.636719 C 20.503906 -51.636719 16.707031 -47.839844 16.707031 -43.03125 Z M 16.707031 -60.75 C 16.707031 -55.9375 20.503906 -52.140625 25.3125 -52.140625 C 30.121094 -52.140625 33.917969 -55.9375 33.917969 -60.75 C 33.917969 -65.558594 30.121094 -69.355469 25.3125 -69.355469 C 20.503906 -69.355469 16.707031 -65.558594 16.707031 -60.75 Z M 16.707031 -78.464844 C 16.707031 -73.65625 20.503906 -69.859375 25.3125 -69.859375 C 30.121094 -69.859375 33.917969 -73.65625 33.917969 -78.464844 C 33.917969 -83.277344 30.121094 -87.074219 25.3125 -87.074219 C 20.503906 -87.074219 16.707031 -83.277344 16.707031 -78.464844 Z M 16.707031 -113.902344 C 16.707031 -109.09375 20.503906 -105.296875 25.3125 -105.296875 C 30.121094 -105.296875 33.917969 -109.09375 33.917969 -113.902344 C 33.917969 -118.710938 30.121094 -122.507812 25.3125 -122.507812 C 20.503906 -122.507812 16.707031 -118.710938 16.707031 -113.902344 Z M 34.425781 -7.59375 C 34.425781 -2.785156 38.222656 1.011719 43.03125 1.011719 C 47.839844 1.011719 51.636719 -2.785156 51.636719 -7.59375 C 51.636719 -12.402344 47.839844 -16.199219 43.03125 -16.199219 C 38.222656 -16.199219 34.425781 -12.402344 34.425781 -7.59375 Z M 34.425781 -25.3125 C 34.425781 -20.503906 38.222656 -16.707031 43.03125 -16.707031 C 47.839844 -16.707031 51.636719 -20.503906 51.636719 -25.3125 C 51.636719 -30.121094 47.839844 -33.917969 43.03125 -33.917969 C 38.222656 -33.917969 34.425781 -30.121094 34.425781 -25.3125 Z M 34.425781 -43.03125 C 34.425781 -38.222656 38.222656 -34.425781 43.03125 -34.425781 C 47.839844 -34.425781 51.636719 -38.222656 51.636719 -43.03125 C 51.636719 -47.839844 47.839844 -51.636719 43.03125 -51.636719 C 38.222656 -51.636719 34.425781 -47.839844 34.425781 -43.03125 Z M 34.425781 -60.75 C 34.425781 -55.9375 38.222656 -52.140625 43.03125 -52.140625 C 47.839844 -52.140625 51.636719 -55.9375 51.636719 -60.75 C 51.636719 -65.558594 47.839844 -69.355469 43.03125 -69.355469 C 38.222656 -69.355469 34.425781 -65.558594 34.425781 -60.75 Z M 34.425781 -78.464844 C 34.425781 -73.65625 38.222656 -69.859375 43.03125 -69.859375 C 47.839844 -69.859375 51.636719 -73.65625 51.636719 -78.464844 C 51.636719 -83.277344 47.839844 -87.074219 43.03125 -87.074219 C 38.222656 -87.074219 34.425781 -83.277344 34.425781 -78.464844 Z M 52.140625 -7.59375 C 52.140625 -2.785156 55.9375 1.011719 60.75 1.011719 C 65.558594 1.011719 69.355469 -2.785156 69.355469 -7.59375 C 69.355469 -12.402344 65.558594 -16.199219 60.75 -16.199219 C 55.9375 -16.199219 52.140625 -12.402344 52.140625 -7.59375 Z M 52.140625 -78.464844 C 52.140625 -73.65625 55.9375 -69.859375 60.75 -69.859375 C 65.558594 -69.859375 69.355469 -73.65625 69.355469 -78.464844 C 69.355469 -83.277344 65.558594 -87.074219 60.75 -87.074219 C 55.9375 -87.074219 52.140625 -83.277344 52.140625 -78.464844 Z M 52.140625 -78.464844 "/></g></g></g><g fill="#ffffff" fill-opacity="1"><g transform="translate(509.607909, 237.012284)"><g><path d="M 78.464844 -105.296875 C 83.277344 -105.296875 87.074219 -109.09375 87.074219 -113.902344 C 87.074219 -118.710938 83.277344 -122.507812 78.464844 -122.507812 C 73.65625 -122.507812 69.859375 -118.710938 69.859375 -113.902344 C 69.859375 -109.09375 73.65625 -105.296875 78.464844 -105.296875 Z M -1.011719 -7.59375 C -1.011719 -2.785156 2.785156 1.011719 7.59375 1.011719 C 12.402344 1.011719 16.199219 -2.785156 16.199219 -7.59375 C 16.199219 -12.402344 12.402344 -16.199219 7.59375 -16.199219 C 2.785156 -16.199219 -1.011719 -12.402344 -1.011719 -7.59375 Z M -1.011719 -25.3125 C -1.011719 -20.503906 2.785156 -16.707031 7.59375 -16.707031 C 12.402344 -16.707031 16.199219 -20.503906 16.199219 -25.3125 C 16.199219 -30.121094 12.402344 -33.917969 7.59375 -33.917969 C 2.785156 -33.917969 -1.011719 -30.121094 -1.011719 -25.3125 Z M -1.011719 -43.03125 C -1.011719 -38.222656 2.785156 -34.425781 7.59375 -34.425781 C 12.402344 -34.425781 16.199219 -38.222656 16.199219 -43.03125 C 16.199219 -47.839844 12.402344 -51.636719 7.59375 -51.636719 C 2.785156 -51.636719 -1.011719 -47.839844 -1.011719 -43.03125 Z M -1.011719 -60.75 C -1.011719 -55.9375 2.785156 -52.140625 7.59375 -52.140625 C 12.402344 -52.140625 16.199219 -55.9375 16.199219 -60.75 C 16.199219 -65.558594 12.402344 -69.355469 7.59375 -69.355469 C 2.785156 -69.355469 -1.011719 -65.558594 -1.011719 -60.75 Z M -1.011719 -78.464844 C -1.011719 -73.65625 2.785156 -69.859375 7.59375 -69.859375 C 12.402344 -69.859375 16.199219 -73.65625 16.199219 -78.464844 C 16.199219 -83.277344 12.402344 -87.074219 7.59375 -87.074219 C 2.785156 -87.074219 -1.011719 -83.277344 -1.011719 -78.464844 Z M -1.011719 -96.183594 C -1.011719 -91.375 2.785156 -87.578125 7.59375 -87.578125 C 12.402344 -87.578125 16.199219 -91.375 16.199219 -96.183594 C 16.199219 -100.992188 12.402344 -104.789062 7.59375 -104.789062 C 2.785156 -104.789062 -1.011719 -100.992188 -1.011719 -96.183594 Z M -1.011719 -113.902344 C -1.011719 -109.09375 2.785156 -105.296875 7.59375 -105.296875 C 12.402344 -105.296875 16.199219 -109.09375 16.199219 -113.902344 C 16.199219 -118.710938 12.402344 -122.507812 7.59375 -122.507812 C 2.785156 -122.507812 -1.011719 -118.710938 -1.011719 -113.902344 Z M 16.707031 -7.59375 C 16.707031 -2.785156 20.503906 1.011719 25.3125 1.011719 C 30.121094 1.011719 33.917969 -2.785156 33.917969 -7.59375 C 33.917969 -12.402344 30.121094 -16.199219 25.3125 -16.199219 C 20.503906 -16.199219 16.707031 -12.402344 16.707031 -7.59375 Z M 16.707031 -25.3125 C 16.707031 -20.503906 20.503906 -16.707031 25.3125 -16.707031 C 30.121094 -16.707031 33.917969 -20.503906 33.917969 -25.3125 C 33.917969 -30.121094 30.121094 -33.917969 25.3125 -33.917969 C 20.503906 -33.917969 16.707031 -30.121094 16.707031 -25.3125 Z M 16.707031 -43.03125 C 16.707031 -38.222656 20.503906 -34.425781 25.3125 -34.425781 C 30.121094 -34.425781 33.917969 -38.222656 33.917969 -43.03125 C 33.917969 -47.839844 30.121094 -51.636719 25.3125 -51.636719 C 20.503906 -51.636719 16.707031 -47.839844 16.707031 -43.03125 Z M 16.707031 -60.75 C 16.707031 -55.9375 20.503906 -52.140625 25.3125 -52.140625 C 30.121094 -52.140625 33.917969 -55.9375 33.917969 -60.75 C 33.917969 -65.558594 30.121094 -69.355469 25.3125 -69.355469 C 20.503906 -69.355469 16.707031 -65.558594 16.707031 -60.75 Z M 16.707031 -78.464844 C 16.707031 -73.65625 20.503906 -69.859375 25.3125 -69.859375 C 30.121094 -69.859375 33.917969 -73.65625 33.917969 -78.464844 C 33.917969 -83.277344 30.121094 -87.074219 25.3125 -87.074219 C 20.503906 -87.074219 16.707031 -83.277344 16.707031 -78.464844 Z M 16.707031 -96.183594 C 16.707031 -91.375 20.503906 -87.578125 25.3125 -87.578125 C 30.121094 -87.578125 33.917969 -91.375 33.917969 -96.183594 C 33.917969 -100.992188 30.121094 -104.789062 25.3125 -104.789062 C 20.503906 -104.789062 16.707031 -100.992188 16.707031 -96.183594 Z M 16.707031 -113.902344 C 16.707031 -109.09375 20.503906 -105.296875 25.3125 -105.296875 C 30.121094 -105.296875 33.917969 -109.09375 33.917969 -113.902344 C 33.917969 -118.710938 30.121094 -122.507812 25.3125 -122.507812 C 20.503906 -122.507812 16.707031 -118.710938 16.707031 -113.902344 Z M 34.425781 -60.75 C 34.425781 -55.9375 38.222656 -52.140625 43.03125 -52.140625 C 47.839844 -52.140625 51.636719 -55.9375 51.636719 -60.75 C 51.636719 -65.558594 47.839844 -69.355469 43.03125 -69.355469 C 38.222656 -69.355469 34.425781 -65.558594 34.425781 -60.75 Z M 34.425781 -113.902344 C 34.425781 -109.09375 38.222656 -105.296875 43.03125 -105.296875 C 47.839844 -105.296875 51.636719 -109.09375 51.636719 -113.902344 C 51.636719 -118.710938 47.839844 -122.507812 43.03125 -122.507812 C 38.222656 -122.507812 34.425781 -118.710938 34.425781 -113.902344 Z M 52.140625 -60.75 C 52.140625 -55.9375 55.9375 -52.140625 60.75 -52.140625 C 65.558594 -52.140625 69.355469 -55.9375 69.355469 -60.75 C 69.355469 -65.558594 65.558594 -69.355469 60.75 -69.355469 C 55.9375 -69.355469 52.140625 -65.558594 52.140625 -60.75 Z M 52.140625 -113.902344 C 52.140625 -109.09375 55.9375 -105.296875 60.75 -105.296875 C 65.558594 -105.296875 69.355469 -109.09375 69.355469 -113.902344 C 69.355469 -118.710938 65.558594 -122.507812 60.75 -122.507812 C 55.9375 -122.507812 52.140625 -118.710938 52.140625 -113.902344 Z M 69.859375 -60.75 C 69.859375 -55.9375 73.65625 -52.140625 78.464844 -52.140625 C 83.277344 -52.140625 87.074219 -55.9375 87.074219 -60.75 C 87.074219 -65.558594 83.277344 -69.355469 78.464844 -69.355469 C 73.65625 -69.355469 69.859375 -65.558594 69.859375 -60.75 Z M 69.859375 -78.464844 C 69.859375 -73.65625 73.65625 -69.859375 78.464844 -69.859375 C 83.277344 -69.859375 87.074219 -73.65625 87.074219 -78.464844 C 87.074219 -83.277344 83.277344 -87.074219 78.464844 -87.074219 C 73.65625 -87.074219 69.859375 -83.277344 69.859375 -78.464844 Z M 69.859375 -96.183594 C 69.859375 -91.375 73.65625 -87.578125 78.464844 -87.578125 C 83.277344 -87.578125 87.074219 -91.375 87.074219 -96.183594 C 87.074219 -100.992188 83.277344 -104.789062 78.464844 -104.789062 C 73.65625 -104.789062 69.859375 -100.992188 69.859375 -96.183594 Z M 87.578125 -78.464844 C 87.578125 -73.65625 91.375 -69.859375 96.183594 -69.859375 C 100.992188 -69.859375 104.789062 -73.65625 104.789062 -78.464844 C 104.789062 -83.277344 100.992188 -87.074219 96.183594 -87.074219 C 91.375 -87.074219 87.578125 -83.277344 87.578125 -78.464844 Z M 87.578125 -96.183594 C 87.578125 -91.375 91.375 -87.578125 96.183594 -87.578125 C 100.992188 -87.578125 104.789062 -91.375 104.789062 -96.183594 C 104.789062 -100.992188 100.992188 -104.789062 96.183594 -104.789062 C 91.375 -104.789062 87.578125 -100.992188 87.578125 -96.183594 Z M 87.578125 -96.183594 "/></g></g></g><g fill="#c1ff72" fill-opacity="1"><g transform="translate(631.096186, 237.012284)"><g><path d="M 96.183594 -69.859375 C 100.992188 -69.859375 104.789062 -73.65625 104.789062 -78.464844 C 104.789062 -83.277344 100.992188 -87.074219 96.183594 -87.074219 C 91.375 -87.074219 87.578125 -83.277344 87.578125 -78.464844 C 87.578125 -73.65625 91.375 -69.859375 96.183594 -69.859375 Z M -1.011719 -25.3125 C -1.011719 -20.503906 2.785156 -16.707031 7.59375 -16.707031 C 12.402344 -16.707031 16.199219 -20.503906 16.199219 -25.3125 C 16.199219 -30.121094 12.402344 -33.917969 7.59375 -33.917969 C 2.785156 -33.917969 -1.011719 -30.121094 -1.011719 -25.3125 Z M -1.011719 -43.03125 C -1.011719 -38.222656 2.785156 -34.425781 7.59375 -34.425781 C 12.402344 -34.425781 16.199219 -38.222656 16.199219 -43.03125 C 16.199219 -47.839844 12.402344 -51.636719 7.59375 -51.636719 C 2.785156 -51.636719 -1.011719 -47.839844 -1.011719 -43.03125 Z M -1.011719 -60.75 C -1.011719 -55.9375 2.785156 -52.140625 7.59375 -52.140625 C 12.402344 -52.140625 16.199219 -55.9375 16.199219 -60.75 C 16.199219 -65.558594 12.402344 -69.355469 7.59375 -69.355469 C 2.785156 -69.355469 -1.011719 -65.558594 -1.011719 -60.75 Z M -1.011719 -78.464844 C -1.011719 -73.65625 2.785156 -69.859375 7.59375 -69.859375 C 12.402344 -69.859375 16.199219 -73.65625 16.199219 -78.464844 C 16.199219 -83.277344 12.402344 -87.074219 7.59375 -87.074219 C 2.785156 -87.074219 -1.011719 -83.277344 -1.011719 -78.464844 Z M 16.707031 -7.59375 C 16.707031 -2.785156 20.503906 1.011719 25.3125 1.011719 C 30.121094 1.011719 33.917969 -2.785156 33.917969 -7.59375 C 33.917969 -12.402344 30.121094 -16.199219 25.3125 -16.199219 C 20.503906 -16.199219 16.707031 -12.402344 16.707031 -7.59375 Z M 16.707031 -25.3125 C 16.707031 -20.503906 20.503906 -16.707031 25.3125 -16.707031 C 30.121094 -16.707031 33.917969 -20.503906 33.917969 -25.3125 C 33.917969 -30.121094 30.121094 -33.917969 25.3125 -33.917969 C 20.503906 -33.917969 16.707031 -30.121094 16.707031 -25.3125 Z M 16.707031 -43.03125 C 16.707031 -38.222656 20.503906 -34.425781 25.3125 -34.425781 C 30.121094 -34.425781 33.917969 -38.222656 33.917969 -43.03125 C 33.917969 -47.839844 30.121094 -51.636719 25.3125 -51.636719 C 20.503906 -51.636719 16.707031 -47.839844 16.707031 -43.03125 Z M 16.707031 -60.75 C 16.707031 -55.9375 20.503906 -52.140625 25.3125 -52.140625 C 30.121094 -52.140625 33.917969 -55.9375 33.917969 -60.75 C 33.917969 -65.558594 30.121094 -69.355469 25.3125 -69.355469 C 20.503906 -69.355469 16.707031 -65.558594 16.707031 -60.75 Z M 16.707031 -78.464844 C 16.707031 -73.65625 20.503906 -69.859375 25.3125 -69.859375 C 30.121094 -69.859375 33.917969 -73.65625 33.917969 -78.464844 C 33.917969 -83.277344 30.121094 -87.074219 25.3125 -87.074219 C 20.503906 -87.074219 16.707031 -83.277344 16.707031 -78.464844 Z M 34.425781 -7.59375 C 34.425781 -2.785156 38.222656 1.011719 43.03125 1.011719 C 47.839844 1.011719 51.636719 -2.785156 51.636719 -7.59375 C 51.636719 -12.402344 47.839844 -16.199219 43.03125 -16.199219 C 38.222656 -16.199219 34.425781 -12.402344 34.425781 -7.59375 Z M 52.140625 -7.59375 C 52.140625 -2.785156 55.9375 1.011719 60.75 1.011719 C 65.558594 1.011719 69.355469 -2.785156 69.355469 -7.59375 C 69.355469 -12.402344 65.558594 -16.199219 60.75 -16.199219 C 55.9375 -16.199219 52.140625 -12.402344 52.140625 -7.59375 Z M 69.859375 -7.59375 C 69.859375 -2.785156 73.65625 1.011719 78.464844 1.011719 C 83.277344 1.011719 87.074219 -2.785156 87.074219 -7.59375 C 87.074219 -12.402344 83.277344 -16.199219 78.464844 -16.199219 C 73.65625 -16.199219 69.859375 -12.402344 69.859375 -7.59375 Z M 69.859375 -25.3125 C 69.859375 -20.503906 73.65625 -16.707031 78.464844 -16.707031 C 83.277344 -16.707031 87.074219 -20.503906 87.074219 -25.3125 C 87.074219 -30.121094 83.277344 -33.917969 78.464844 -33.917969 C 73.65625 -33.917969 69.859375 -30.121094 69.859375 -25.3125 Z M 69.859375 -43.03125 C 69.859375 -38.222656 73.65625 -34.425781 78.464844 -34.425781 C 83.277344 -34.425781 87.074219 -38.222656 87.074219 -43.03125 C 87.074219 -47.839844 83.277344 -51.636719 78.464844 -51.636719 C 73.65625 -51.636719 69.859375 -47.839844 69.859375 -43.03125 Z M 69.859375 -60.75 C 69.859375 -55.9375 73.65625 -52.140625 78.464844 -52.140625 C 83.277344 -52.140625 87.074219 -55.9375 87.074219 -60.75 C 87.074219 -65.558594 83.277344 -69.355469 78.464844 -69.355469 C 73.65625 -69.355469 69.859375 -65.558594 69.859375 -60.75 Z M 69.859375 -78.464844 C 69.859375 -73.65625 73.65625 -69.859375 78.464844 -69.859375 C 83.277344 -69.859375 87.074219 -73.65625 87.074219 -78.464844 C 87.074219 -83.277344 83.277344 -87.074219 78.464844 -87.074219 C 73.65625 -87.074219 69.859375 -83.277344 69.859375 -78.464844 Z M 87.578125 -25.3125 C 87.578125 -20.503906 91.375 -16.707031 96.183594 -16.707031 C 100.992188 -16.707031 104.789062 -20.503906 104.789062 -25.3125 C 104.789062 -30.121094 100.992188 -33.917969 96.183594 -33.917969 C 91.375 -33.917969 87.578125 -30.121094 87.578125 -25.3125 Z M 87.578125 -43.03125 C 87.578125 -38.222656 91.375 -34.425781 96.183594 -34.425781 C 100.992188 -34.425781 104.789062 -38.222656 104.789062 -43.03125 C 104.789062 -47.839844 100.992188 -51.636719 96.183594 -51.636719 C 91.375 -51.636719 87.578125 -47.839844 87.578125 -43.03125 Z M 87.578125 -60.75 C 87.578125 -55.9375 91.375 -52.140625 96.183594 -52.140625 C 100.992188 -52.140625 104.789062 -55.9375 104.789062 -60.75 C 104.789062 -65.558594 100.992188 -69.355469 96.183594 -69.355469 C 91.375 -69.355469 87.578125 -65.558594 87.578125 -60.75 Z M 87.578125 -60.75 "/></g></g></g><g fill="#ffffff" fill-opacity="1"><g transform="translate(752.584456, 237.012284)"><g><path d="M 78.464844 -69.859375 C 83.277344 -69.859375 87.074219 -73.65625 87.074219 -78.464844 C 87.074219 -83.277344 83.277344 -87.074219 78.464844 -87.074219 C 73.65625 -87.074219 69.859375 -83.277344 69.859375 -78.464844 C 69.859375 -73.65625 73.65625 -69.859375 78.464844 -69.859375 Z M -1.011719 -7.59375 C -1.011719 -2.785156 2.785156 1.011719 7.59375 1.011719 C 12.402344 1.011719 16.199219 -2.785156 16.199219 -7.59375 C 16.199219 -12.402344 12.402344 -16.199219 7.59375 -16.199219 C 2.785156 -16.199219 -1.011719 -12.402344 -1.011719 -7.59375 Z M -1.011719 -25.3125 C -1.011719 -20.503906 2.785156 -16.707031 7.59375 -16.707031 C 12.402344 -16.707031 16.199219 -20.503906 16.199219 -25.3125 C 16.199219 -30.121094 12.402344 -33.917969 7.59375 -33.917969 C 2.785156 -33.917969 -1.011719 -30.121094 -1.011719 -25.3125 Z M -1.011719 -43.03125 C -1.011719 -38.222656 2.785156 -34.425781 7.59375 -34.425781 C 12.402344 -34.425781 16.199219 -38.222656 16.199219 -43.03125 C 16.199219 -47.839844 12.402344 -51.636719 7.59375 -51.636719 C 2.785156 -51.636719 -1.011719 -47.839844 -1.011719 -43.03125 Z M -1.011719 -60.75 C -1.011719 -55.9375 2.785156 -52.140625 7.59375 -52.140625 C 12.402344 -52.140625 16.199219 -55.9375 16.199219 -60.75 C 16.199219 -65.558594 12.402344 -69.355469 7.59375 -69.355469 C 2.785156 -69.355469 -1.011719 -65.558594 -1.011719 -60.75 Z M 16.707031 -7.59375 C 16.707031 -2.785156 20.503906 1.011719 25.3125 1.011719 C 30.121094 1.011719 33.917969 -2.785156 33.917969 -7.59375 C 33.917969 -12.402344 30.121094 -16.199219 25.3125 -16.199219 C 20.503906 -16.199219 16.707031 -12.402344 16.707031 -7.59375 Z M 16.707031 -25.3125 C 16.707031 -20.503906 20.503906 -16.707031 25.3125 -16.707031 C 30.121094 -16.707031 33.917969 -20.503906 33.917969 -25.3125 C 33.917969 -30.121094 30.121094 -33.917969 25.3125 -33.917969 C 20.503906 -33.917969 16.707031 -30.121094 16.707031 -25.3125 Z M 16.707031 -43.03125 C 16.707031 -38.222656 20.503906 -34.425781 25.3125 -34.425781 C 30.121094 -34.425781 33.917969 -38.222656 33.917969 -43.03125 C 33.917969 -47.839844 30.121094 -51.636719 25.3125 -51.636719 C 20.503906 -51.636719 16.707031 -47.839844 16.707031 -43.03125 Z M 16.707031 -60.75 C 16.707031 -55.9375 20.503906 -52.140625 25.3125 -52.140625 C 30.121094 -52.140625 33.917969 -55.9375 33.917969 -60.75 C 33.917969 -65.558594 30.121094 -69.355469 25.3125 -69.355469 C 20.503906 -69.355469 16.707031 -65.558594 16.707031 -60.75 Z M 16.707031 -78.464844 C 16.707031 -73.65625 20.503906 -69.859375 25.3125 -69.859375 C 30.121094 -69.859375 33.917969 -73.65625 33.917969 -78.464844 C 33.917969 -83.277344 30.121094 -87.074219 25.3125 -87.074219 C 20.503906 -87.074219 16.707031 -83.277344 16.707031 -78.464844 Z M 34.425781 -78.464844 C 34.425781 -73.65625 38.222656 -69.859375 43.03125 -69.859375 C 47.839844 -69.859375 51.636719 -73.65625 51.636719 -78.464844 C 51.636719 -83.277344 47.839844 -87.074219 43.03125 -87.074219 C 38.222656 -87.074219 34.425781 -83.277344 34.425781 -78.464844 Z M 52.140625 -78.464844 C 52.140625 -73.65625 55.9375 -69.859375 60.75 -69.859375 C 65.558594 -69.859375 69.355469 -73.65625 69.355469 -78.464844 C 69.355469 -83.277344 65.558594 -87.074219 60.75 -87.074219 C 55.9375 -87.074219 52.140625 -83.277344 52.140625 -78.464844 Z M 69.859375 -7.59375 C 69.859375 -2.785156 73.65625 1.011719 78.464844 1.011719 C 83.277344 1.011719 87.074219 -2.785156 87.074219 -7.59375 C 87.074219 -12.402344 83.277344 -16.199219 78.464844 -16.199219 C 73.65625 -16.199219 69.859375 -12.402344 69.859375 -7.59375 Z M 69.859375 -25.3125 C 69.859375 -20.503906 73.65625 -16.707031 78.464844 -16.707031 C 83.277344 -16.707031 87.074219 -20.503906 87.074219 -25.3125 C 87.074219 -30.121094 83.277344 -33.917969 78.464844 -33.917969 C 73.65625 -33.917969 69.859375 -30.121094 69.859375 -25.3125 Z M 69.859375 -43.03125 C 69.859375 -38.222656 73.65625 -34.425781 78.464844 -34.425781 C 83.277344 -34.425781 87.074219 -38.222656 87.074219 -43.03125 C 87.074219 -47.839844 83.277344 -51.636719 78.464844 -51.636719 C 73.65625 -51.636719 69.859375 -47.839844 69.859375 -43.03125 Z M 69.859375 -60.75 C 69.859375 -55.9375 73.65625 -52.140625 78.464844 -52.140625 C 83.277344 -52.140625 87.074219 -55.9375 87.074219 -60.75 C 87.074219 -65.558594 83.277344 -69.355469 78.464844 -69.355469 C 73.65625 -69.355469 69.859375 -65.558594 69.859375 -60.75 Z M 87.578125 -7.59375 C 87.578125 -2.785156 91.375 1.011719 96.183594 1.011719 C 100.992188 1.011719 104.789062 -2.785156 104.789062 -7.59375 C 104.789062 -12.402344 100.992188 -16.199219 96.183594 -16.199219 C 91.375 -16.199219 87.578125 -12.402344 87.578125 -7.59375 Z M 87.578125 -25.3125 C 87.578125 -20.503906 91.375 -16.707031 96.183594 -16.707031 C 100.992188 -16.707031 104.789062 -20.503906 104.789062 -25.3125 C 104.789062 -30.121094 100.992188 -33.917969 96.183594 -33.917969 C 91.375 -33.917969 87.578125 -30.121094 87.578125 -25.3125 Z M 87.578125 -43.03125 C 87.578125 -38.222656 91.375 -34.425781 96.183594 -34.425781 C 100.992188 -34.425781 104.789062 -38.222656 104.789062 -43.03125 C 104.789062 -47.839844 100.992188 -51.636719 96.183594 -51.636719 C 91.375 -51.636719 87.578125 -47.839844 87.578125 -43.03125 Z M 87.578125 -60.75 C 87.578125 -55.9375 91.375 -52.140625 96.183594 -52.140625 C 100.992188 -52.140625 104.789062 -55.9375 104.789062 -60.75 C 104.789062 -65.558594 100.992188 -69.355469 96.183594 -69.355469 C 91.375 -69.355469 87.578125 -65.558594 87.578125 -60.75 Z M 87.578125 -60.75 "/></g></g></g><g fill="#5271ff" fill-opacity="1"><g transform="translate(874.072733, 237.012284)"><g><path d="M 96.183594 -69.859375 C 100.992188 -69.859375 104.789062 -73.65625 104.789062 -78.464844 C 104.789062 -83.277344 100.992188 -87.074219 96.183594 -87.074219 C 91.375 -87.074219 87.578125 -83.277344 87.578125 -78.464844 C 87.578125 -73.65625 91.375 -69.859375 96.183594 -69.859375 Z M -1.011719 -7.59375 C -1.011719 -2.785156 2.785156 1.011719 7.59375 1.011719 C 12.402344 1.011719 16.199219 -2.785156 16.199219 -7.59375 C 16.199219 -12.402344 12.402344 -16.199219 7.59375 -16.199219 C 2.785156 -16.199219 -1.011719 -12.402344 -1.011719 -7.59375 Z M -1.011719 -25.3125 C -1.011719 -20.503906 2.785156 -16.707031 7.59375 -16.707031 C 12.402344 -16.707031 16.199219 -20.503906 16.199219 -25.3125 C 16.199219 -30.121094 12.402344 -33.917969 7.59375 -33.917969 C 2.785156 -33.917969 -1.011719 -30.121094 -1.011719 -25.3125 Z M -1.011719 -43.03125 C -1.011719 -38.222656 2.785156 -34.425781 7.59375 -34.425781 C 12.402344 -34.425781 16.199219 -38.222656 16.199219 -43.03125 C 16.199219 -47.839844 12.402344 -51.636719 7.59375 -51.636719 C 2.785156 -51.636719 -1.011719 -47.839844 -1.011719 -43.03125 Z M -1.011719 -60.75 C -1.011719 -55.9375 2.785156 -52.140625 7.59375 -52.140625 C 12.402344 -52.140625 16.199219 -55.9375 16.199219 -60.75 C 16.199219 -65.558594 12.402344 -69.355469 7.59375 -69.355469 C 2.785156 -69.355469 -1.011719 -65.558594 -1.011719 -60.75 Z M -1.011719 -78.464844 C -1.011719 -73.65625 2.785156 -69.859375 7.59375 -69.859375 C 12.402344 -69.859375 16.199219 -73.65625 16.199219 -78.464844 C 16.199219 -83.277344 12.402344 -87.074219 7.59375 -87.074219 C 2.785156 -87.074219 -1.011719 -83.277344 -1.011719 -78.464844 Z M -1.011719 -96.183594 C -1.011719 -91.375 2.785156 -87.578125 7.59375 -87.578125 C 12.402344 -87.578125 16.199219 -91.375 16.199219 -96.183594 C 16.199219 -100.992188 12.402344 -104.789062 7.59375 -104.789062 C 2.785156 -104.789062 -1.011719 -100.992188 -1.011719 -96.183594 Z M -1.011719 -113.902344 C -1.011719 -109.09375 2.785156 -105.296875 7.59375 -105.296875 C 12.402344 -105.296875 16.199219 -109.09375 16.199219 -113.902344 C 16.199219 -118.710938 12.402344 -122.507812 7.59375 -122.507812 C 2.785156 -122.507812 -1.011719 -118.710938 -1.011719 -113.902344 Z M 16.707031 -7.59375 C 16.707031 -2.785156 20.503906 1.011719 25.3125 1.011719 C 30.121094 1.011719 33.917969 -2.785156 33.917969 -7.59375 C 33.917969 -12.402344 30.121094 -16.199219 25.3125 -16.199219 C 20.503906 -16.199219 16.707031 -12.402344 16.707031 -7.59375 Z M 16.707031 -25.3125 C 16.707031 -20.503906 20.503906 -16.707031 25.3125 -16.707031 C 30.121094 -16.707031 33.917969 -20.503906 33.917969 -25.3125 C 33.917969 -30.121094 30.121094 -33.917969 25.3125 -33.917969 C 20.503906 -33.917969 16.707031 -30.121094 16.707031 -25.3125 Z M 16.707031 -43.03125 C 16.707031 -38.222656 20.503906 -34.425781 25.3125 -34.425781 C 30.121094 -34.425781 33.917969 -38.222656 33.917969 -43.03125 C 33.917969 -47.839844 30.121094 -51.636719 25.3125 -51.636719 C 20.503906 -51.636719 16.707031 -47.839844 16.707031 -43.03125 Z M 16.707031 -60.75 C 16.707031 -55.9375 20.503906 -52.140625 25.3125 -52.140625 C 30.121094 -52.140625 33.917969 -55.9375 33.917969 -60.75 C 33.917969 -65.558594 30.121094 -69.355469 25.3125 -69.355469 C 20.503906 -69.355469 16.707031 -65.558594 16.707031 -60.75 Z M 16.707031 -78.464844 C 16.707031 -73.65625 20.503906 -69.859375 25.3125 -69.859375 C 30.121094 -69.859375 33.917969 -73.65625 33.917969 -78.464844 C 33.917969 -83.277344 30.121094 -87.074219 25.3125 -87.074219 C 20.503906 -87.074219 16.707031 -83.277344 16.707031 -78.464844 Z M 16.707031 -96.183594 C 16.707031 -91.375 20.503906 -87.578125 25.3125 -87.578125 C 30.121094 -87.578125 33.917969 -91.375 33.917969 -96.183594 C 33.917969 -100.992188 30.121094 -104.789062 25.3125 -104.789062 C 20.503906 -104.789062 16.707031 -100.992188 16.707031 -96.183594 Z M 16.707031 -113.902344 C 16.707031 -109.09375 20.503906 -105.296875 25.3125 -105.296875 C 30.121094 -105.296875 33.917969 -109.09375 33.917969 -113.902344 C 33.917969 -118.710938 30.121094 -122.507812 25.3125 -122.507812 C 20.503906 -122.507812 16.707031 -118.710938 16.707031 -113.902344 Z M 34.425781 -60.75 C 34.425781 -55.9375 38.222656 -52.140625 43.03125 -52.140625 C 47.839844 -52.140625 51.636719 -55.9375 51.636719 -60.75 C 51.636719 -65.558594 47.839844 -69.355469 43.03125 -69.355469 C 38.222656 -69.355469 34.425781 -65.558594 34.425781 -60.75 Z M 52.140625 -60.75 C 52.140625 -55.9375 55.9375 -52.140625 60.75 -52.140625 C 65.558594 -52.140625 69.355469 -55.9375 69.355469 -60.75 C 69.355469 -65.558594 65.558594 -69.355469 60.75 -69.355469 C 55.9375 -69.355469 52.140625 -65.558594 52.140625 -60.75 Z M 69.859375 -7.59375 C 69.859375 -2.785156 73.65625 1.011719 78.464844 1.011719 C 83.277344 1.011719 87.074219 -2.785156 87.074219 -7.59375 C 87.074219 -12.402344 83.277344 -16.199219 78.464844 -16.199219 C 73.65625 -16.199219 69.859375 -12.402344 69.859375 -7.59375 Z M 69.859375 -25.3125 C 69.859375 -20.503906 73.65625 -16.707031 78.464844 -16.707031 C 83.277344 -16.707031 87.074219 -20.503906 87.074219 -25.3125 C 87.074219 -30.121094 83.277344 -33.917969 78.464844 -33.917969 C 73.65625 -33.917969 69.859375 -30.121094 69.859375 -25.3125 Z M 69.859375 -43.03125 C 69.859375 -38.222656 73.65625 -34.425781 78.464844 -34.425781 C 83.277344 -34.425781 87.074219 -38.222656 87.074219 -43.03125 C 87.074219 -47.839844 83.277344 -51.636719 78.464844 -51.636719 C 73.65625 -51.636719 69.859375 -47.839844 69.859375 -43.03125 Z M 69.859375 -60.75 C 69.859375 -55.9375 73.65625 -52.140625 78.464844 -52.140625 C 83.277344 -52.140625 87.074219 -55.9375 87.074219 -60.75 C 87.074219 -65.558594 83.277344 -69.355469 78.464844 -69.355469 C 73.65625 -69.355469 69.859375 -65.558594 69.859375 -60.75 Z M 69.859375 -78.464844 C 69.859375 -73.65625 73.65625 -69.859375 78.464844 -69.859375 C 83.277344 -69.859375 87.074219 -73.65625 87.074219 -78.464844 C 87.074219 -83.277344 83.277344 -87.074219 78.464844 -87.074219 C 73.65625 -87.074219 69.859375 -83.277344 69.859375 -78.464844 Z M 87.578125 -7.59375 C 87.578125 -2.785156 91.375 1.011719 96.183594 1.011719 C 100.992188 1.011719 104.789062 -2.785156 104.789062 -7.59375 C 104.789062 -12.402344 100.992188 -16.199219 96.183594 -16.199219 C 91.375 -16.199219 87.578125 -12.402344 87.578125 -7.59375 Z M 87.578125 -25.3125 C 87.578125 -20.503906 91.375 -16.707031 96.183594 -16.707031 C 100.992188 -16.707031 104.789062 -20.503906 104.789062 -25.3125 C 104.789062 -30.121094 100.992188 -33.917969 96.183594 -33.917969 C 91.375 -33.917969 87.578125 -30.121094 87.578125 -25.3125 Z M 87.578125 -43.03125 C 87.578125 -38.222656 91.375 -34.425781 96.183594 -34.425781 C 100.992188 -34.425781 104.789062 -38.222656 104.789062 -43.03125 C 104.789062 -47.839844 100.992188 -51.636719 96.183594 -51.636719 C 91.375 -51.636719 87.578125 -47.839844 87.578125 -43.03125 Z M 87.578125 -43.03125 "/></g></g></g><g fill="#ffffff" fill-opacity="1"><g transform="translate(995.561002, 237.012284)"><g><path d="M 96.183594 -69.859375 C 100.992188 -69.859375 104.789062 -73.65625 104.789062 -78.464844 C 104.789062 -83.277344 100.992188 -87.074219 96.183594 -87.074219 C 91.375 -87.074219 87.578125 -83.277344 87.578125 -78.464844 C 87.578125 -73.65625 91.375 -69.859375 96.183594 -69.859375 Z M -1.011719 -7.59375 C -1.011719 -2.785156 2.785156 1.011719 7.59375 1.011719 C 12.402344 1.011719 16.199219 -2.785156 16.199219 -7.59375 C 16.199219 -12.402344 12.402344 -16.199219 7.59375 -16.199219 C 2.785156 -16.199219 -1.011719 -12.402344 -1.011719 -7.59375 Z M -1.011719 -25.3125 C -1.011719 -20.503906 2.785156 -16.707031 7.59375 -16.707031 C 12.402344 -16.707031 16.199219 -20.503906 16.199219 -25.3125 C 16.199219 -30.121094 12.402344 -33.917969 7.59375 -33.917969 C 2.785156 -33.917969 -1.011719 -30.121094 -1.011719 -25.3125 Z M -1.011719 -60.75 C -1.011719 -55.9375 2.785156 -52.140625 7.59375 -52.140625 C 12.402344 -52.140625 16.199219 -55.9375 16.199219 -60.75 C 16.199219 -65.558594 12.402344 -69.355469 7.59375 -69.355469 C 2.785156 -69.355469 -1.011719 -65.558594 -1.011719 -60.75 Z M -1.011719 -78.464844 C -1.011719 -73.65625 2.785156 -69.859375 7.59375 -69.859375 C 12.402344 -69.859375 16.199219 -73.65625 16.199219 -78.464844 C 16.199219 -83.277344 12.402344 -87.074219 7.59375 -87.074219 C 2.785156 -87.074219 -1.011719 -83.277344 -1.011719 -78.464844 Z M 16.707031 -7.59375 C 16.707031 -2.785156 20.503906 1.011719 25.3125 1.011719 C 30.121094 1.011719 33.917969 -2.785156 33.917969 -7.59375 C 33.917969 -12.402344 30.121094 -16.199219 25.3125 -16.199219 C 20.503906 -16.199219 16.707031 -12.402344 16.707031 -7.59375 Z M 16.707031 -25.3125 C 16.707031 -20.503906 20.503906 -16.707031 25.3125 -16.707031 C 30.121094 -16.707031 33.917969 -20.503906 33.917969 -25.3125 C 33.917969 -30.121094 30.121094 -33.917969 25.3125 -33.917969 C 20.503906 -33.917969 16.707031 -30.121094 16.707031 -25.3125 Z M 16.707031 -78.464844 C 16.707031 -73.65625 20.503906 -69.859375 25.3125 -69.859375 C 30.121094 -69.859375 33.917969 -73.65625 33.917969 -78.464844 C 33.917969 -83.277344 30.121094 -87.074219 25.3125 -87.074219 C 20.503906 -87.074219 16.707031 -83.277344 16.707031 -78.464844 Z M 34.425781 -7.59375 C 34.425781 -2.785156 38.222656 1.011719 43.03125 1.011719 C 47.839844 1.011719 51.636719 -2.785156 51.636719 -7.59375 C 51.636719 -12.402344 47.839844 -16.199219 43.03125 -16.199219 C 38.222656 -16.199219 34.425781 -12.402344 34.425781 -7.59375 Z M 34.425781 -43.03125 C 34.425781 -38.222656 38.222656 -34.425781 43.03125 -34.425781 C 47.839844 -34.425781 51.636719 -38.222656 51.636719 -43.03125 C 51.636719 -47.839844 47.839844 -51.636719 43.03125 -51.636719 C 38.222656 -51.636719 34.425781 -47.839844 34.425781 -43.03125 Z M 34.425781 -78.464844 C 34.425781 -73.65625 38.222656 -69.859375 43.03125 -69.859375 C 47.839844 -69.859375 51.636719 -73.65625 51.636719 -78.464844 C 51.636719 -83.277344 47.839844 -87.074219 43.03125 -87.074219 C 38.222656 -87.074219 34.425781 -83.277344 34.425781 -78.464844 Z M 52.140625 -7.59375 C 52.140625 -2.785156 55.9375 1.011719 60.75 1.011719 C 65.558594 1.011719 69.355469 -2.785156 69.355469 -7.59375 C 69.355469 -12.402344 65.558594 -16.199219 60.75 -16.199219 C 55.9375 -16.199219 52.140625 -12.402344 52.140625 -7.59375 Z M 52.140625 -43.03125 C 52.140625 -38.222656 55.9375 -34.425781 60.75 -34.425781 C 65.558594 -34.425781 69.355469 -38.222656 69.355469 -43.03125 C 69.355469 -47.839844 65.558594 -51.636719 60.75 -51.636719 C 55.9375 -51.636719 52.140625 -47.839844 52.140625 -43.03125 Z M 52.140625 -78.464844 C 52.140625 -73.65625 55.9375 -69.859375 60.75 -69.859375 C 65.558594 -69.859375 69.355469 -73.65625 69.355469 -78.464844 C 69.355469 -83.277344 65.558594 -87.074219 60.75 -87.074219 C 55.9375 -87.074219 52.140625 -83.277344 52.140625 -78.464844 Z M 69.859375 -7.59375 C 69.859375 -2.785156 73.65625 1.011719 78.464844 1.011719 C 83.277344 1.011719 87.074219 -2.785156 87.074219 -7.59375 C 87.074219 -12.402344 83.277344 -16.199219 78.464844 -16.199219 C 73.65625 -16.199219 69.859375 -12.402344 69.859375 -7.59375 Z M 69.859375 -60.75 C 69.859375 -55.9375 73.65625 -52.140625 78.464844 -52.140625 C 83.277344 -52.140625 87.074219 -55.9375 87.074219 -60.75 C 87.074219 -65.558594 83.277344 -69.355469 78.464844 -69.355469 C 73.65625 -69.355469 69.859375 -65.558594 69.859375 -60.75 Z M 69.859375 -78.464844 C 69.859375 -73.65625 73.65625 -69.859375 78.464844 -69.859375 C 83.277344 -69.859375 87.074219 -73.65625 87.074219 -78.464844 C 87.074219 -83.277344 83.277344 -87.074219 78.464844 -87.074219 C 73.65625 -87.074219 69.859375 -83.277344 69.859375 -78.464844 Z M 87.578125 -7.59375 C 87.578125 -2.785156 91.375 1.011719 96.183594 1.011719 C 100.992188 1.011719 104.789062 -2.785156 104.789062 -7.59375 C 104.789062 -12.402344 100.992188 -16.199219 96.183594 -16.199219 C 91.375 -16.199219 87.578125 -12.402344 87.578125 -7.59375 Z M 87.578125 -25.3125 C 87.578125 -20.503906 91.375 -16.707031 96.183594 -16.707031 C 100.992188 -16.707031 104.789062 -20.503906 104.789062 -25.3125 C 104.789062 -30.121094 100.992188 -33.917969 96.183594 -33.917969 C 91.375 -33.917969 87.578125 -30.121094 87.578125 -25.3125 Z M 87.578125 -60.75 C 87.578125 -55.9375 91.375 -52.140625 96.183594 -52.140625 C 100.992188 -52.140625 104.789062 -55.9375 104.789062 -60.75 C 104.789062 -65.558594 100.992188 -69.355469 96.183594 -69.355469 C 91.375 -69.355469 87.578125 -65.558594 87.578125 -60.75 Z M 87.578125 -60.75 "/></g></g></g></svg>